<?xml version="1.0" encoding="UTF-8"?>
<svg id="Layer_1" data-name="Layer 1" xmlns="http://www.w3.org/2000/svg" viewBox="0 0 1920 1080">
  <defs>
    <style>
      .cls-1 {
        fill: #00b65a;
      }

      .cls-1, .cls-2 {
        stroke-width: 0px;
      }

      .cls-2 {
        fill: #004528;
      }
    </style>
  </defs>
  <g>
    <path class="cls-2" d="M892.66,578.83c-2.03,5.03-5.58,9.06-10.65,12.11-5.07,3.04-10.87,4.56-17.4,4.56-7.94,0-15.24-1.7-21.9-5.09-6.66-3.39-12.15-8.75-16.47-16.07-4.32-7.32-6.48-16.05-6.48-26.2s2.18-18.87,6.55-26.2c4.37-7.32,9.92-12.68,16.67-16.07,6.75-3.39,14.13-5.09,22.16-5.09,10.94,0,20.13,2.91,27.58,8.73,7.45,5.82,11.66,13.32,12.63,22.49h-14.16c-.97-5.64-3.88-10.23-8.73-13.76-4.85-3.53-10.67-5.29-17.46-5.29-9.35,0-16.96,3.11-22.82,9.33-5.87,6.22-8.8,14.84-8.8,25.86s2.93,19.71,8.8,26.06c5.86,6.35,13.43,9.53,22.69,9.53,7.32,0,13.67-1.94,19.05-5.82,5.38-3.88,8.07-8.77,8.07-14.68,0-1.85-.57-3.33-1.72-4.43-1.15-1.1-2.69-1.65-4.63-1.65h-19.98v-11.11h23.55c3.97,0,7.63,1.43,10.98,4.3,3.35,2.87,5.03,6.64,5.03,11.31,0,0-.22,33.87-40.62,33.87M877.37,593.21"/>
    <path class="cls-2" d="M1210.56,595.5c-7.94,0-15.24-1.7-21.9-5.09-6.66-3.39-12.15-8.75-16.47-16.07-4.32-7.32-6.48-16.05-6.48-26.2s2.18-18.87,6.55-26.2c4.37-7.32,9.92-12.68,16.67-16.07,6.75-3.39,14.13-5.09,22.16-5.09,10.94,0,20.13,2.91,27.58,8.73,7.45,5.82,11.66,13.32,12.63,22.49h-14.16c-.97-5.64-3.88-10.23-8.73-13.76-4.85-3.53-10.67-5.29-17.46-5.29-9.35,0-16.96,3.11-22.82,9.33-5.87,6.22-8.8,14.84-8.8,25.86s2.93,19.71,8.8,26.06c5.86,6.35,13.43,9.53,22.69,9.53,7.32,0,13.67-1.94,19.05-5.82,5.38-3.88,8.07-8.77,8.07-14.68,0-1.85-.57-3.33-1.72-4.43-1.15-1.1-2.69-1.65-4.63-1.65h-19.98v-11.11h23.55c3.97,0,7.63,1.43,10.98,4.3,3.35,2.87,5.03,6.64,5.03,11.31,0,0-.22,33.87-40.62,33.87M1223.32,593.21"/>
    <path class="cls-2" d="M945.57,538.87c-10.76,0-16.14,8.47-16.14,25.4v30.16h-12.83v-66.68h12.83v12.83c1.5-4.5,3.66-7.76,6.48-9.79,2.82-2.03,6.57-3.04,11.25-3.04h8.07v11.11h-9.66Z"/>
    <path class="cls-2" d="M987.78,595.5c-9.97,0-18.04-3.39-24.21-10.19-6.17-6.79-9.26-14.99-9.26-24.61s2.87-17.79,8.6-24.28c5.73-6.48,13.58-9.72,23.55-9.72s17.62,3.04,23.22,9.13c5.6,6.09,8.4,13.58,8.4,22.49,0,1.77-.09,3.44-.26,5.03h-50.94c.53,6.35,2.69,11.47,6.48,15.35,3.79,3.88,8.6,5.82,14.42,5.82,10.05,0,16.05-3.92,17.99-11.77h12.83c-1.24,6.88-4.63,12.39-10.19,16.54-5.56,4.15-12.44,6.22-20.64,6.22ZM967.27,553.95h37.84c-.44-5.11-2.29-9.22-5.56-12.3-3.26-3.09-7.63-4.63-13.1-4.63-10.76,0-17.15,5.65-19.18,16.93Z"/>
    <path class="cls-2" d="M1056.97,595.5c-9.97,0-18.04-3.39-24.21-10.19-6.17-6.79-9.26-14.99-9.26-24.61s2.86-17.79,8.6-24.28c5.73-6.48,13.58-9.72,23.55-9.72s17.62,3.04,23.22,9.13c5.6,6.09,8.4,13.58,8.4,22.49,0,1.77-.09,3.44-.26,5.03h-50.94c.53,6.35,2.69,11.47,6.48,15.35,3.79,3.88,8.6,5.82,14.42,5.82,10.05,0,16.05-3.92,17.99-11.77h12.83c-1.24,6.88-4.63,12.39-10.19,16.54-5.56,4.15-12.44,6.22-20.64,6.22ZM1036.46,553.95h37.84c-.44-5.11-2.29-9.22-5.56-12.3-3.26-3.09-7.63-4.63-13.1-4.63-10.76,0-17.15,5.65-19.18,16.93Z"/>
    <path class="cls-2" d="M1097.19,594.44v-66.68h12.83v11.77c1.76-4.14,4.52-7.32,8.27-9.53,3.75-2.2,8.14-3.31,13.16-3.31,7.5,0,13.52,2.47,18.06,7.41,4.54,4.94,6.81,11.38,6.81,19.32v41.01h-12.83v-38.5c0-5.29-1.43-9.57-4.3-12.83-2.87-3.26-6.64-4.9-11.31-4.9-5.21,0-9.48,1.9-12.83,5.69-3.35,3.79-5.03,8.6-5.03,14.42v36.12h-12.83Z"/>
    <path class="cls-2" d="M1316.27,585.77c-6.44,6.48-14.64,9.72-24.61,9.72s-18.19-3.24-24.67-9.72-9.72-14.71-9.72-24.67,3.24-18.19,9.72-24.67c6.48-6.48,14.71-9.72,24.67-9.72s18.17,3.24,24.61,9.72c6.44,6.48,9.66,14.71,9.66,24.67s-3.22,18.19-9.66,24.67ZM1291.66,584.25c6.26,0,11.36-2.16,15.28-6.48,3.92-4.32,5.89-9.88,5.89-16.67s-1.96-12.35-5.89-16.67c-3.93-4.32-9.02-6.48-15.28-6.48s-11.49,2.16-15.41,6.48c-3.93,4.32-5.89,9.88-5.89,16.67s1.96,12.35,5.89,16.67c3.92,4.32,9.06,6.48,15.41,6.48Z"/>
  </g>
  <g>
    <path class="cls-1" d="M638.07,594.44c-19.5,0-36.9-13.89-40.61-33.74-2.02-10.79.32-21.77,6.58-30.92,6.26-9.15,15.65-15.3,26.44-17.32,8.33-1.56,16.82-.55,24.55,2.93l-4.82,10.72c-5.53-2.49-11.61-3.21-17.57-2.1-7.7,1.44-14.42,5.85-18.91,12.4-4.49,6.56-6.17,14.41-4.73,22.11,2.66,14.2,15.11,24.14,29.06,24.14,1.8,0,3.62-.17,5.45-.51,16.03-3,26.64-18.49,23.63-34.52l11.55-2.16c4.19,22.4-10.62,44.04-33.03,48.23-2.56.48-5.11.71-7.62.71Z"/>
    <path class="cls-1" d="M781.61,580.56c-7.38,8.27-17.48,13.17-28.44,13.8-.8.05-1.59.07-2.39.07-10.1,0-19.76-3.7-27.44-10.54-7.63-6.8-12.4-15.92-13.58-25.89l11.53-3.01c.49,7.75,4,14.88,9.87,20.12,5.93,5.29,13.51,7.94,21.33,7.51,7.82-.45,15.05-3.96,20.33-9.9,5.29-5.93,7.95-13.51,7.5-21.33-.45-7.83-3.96-15.05-9.89-20.33-5.93-5.29-13.51-7.95-21.33-7.51-1.11.06-2.22.19-3.31.38-1.4.23-2.77.58-4.12,1.02l-3.63-11.18c3-.98,6.11-1.6,9.26-1.87.38-.03.76-.05,1.14-.08,22.76-1.3,42.33,16.15,43.64,38.9.62,10.95-3.09,21.55-10.47,29.83Z"/>
    <path class="cls-1" d="M639.58,562.75l-2.98-11.37,88.68-23.27c2.82-.74,5.43-2.26,7.28-4.51,2.87-3.49,3.83-7.95,2.71-12.19-1.91-7.27-9.37-11.62-16.63-9.72l-17.76,4.66-2.98-11.37,17.76-4.66c15.01-3.94,30.48,6.48,31.77,22.73.28,3.57-.22,7.19-1.48,10.55-3,7.98-9.41,13.72-17.4,15.82l-88.95,23.35Z"/>
  </g>
</svg>