<svg width="24" height="24" viewBox="0 0 24 24" fill="none" xmlns="http://www.w3.org/2000/svg">
<path d="M16.38 7.63999V8.08928L16.8267 8.13715C18.1548 8.27944 19.0292 8.67795 19.5878 9.29391C20.3924 10.2006 20.4009 11.4406 20.2934 12.4113L19.5939 17.9979L19.5938 17.9979L19.5929 18.0062C19.492 18.9386 19.26 19.7798 18.6246 20.3996C17.9928 21.0158 16.8704 21.5 14.79 21.5H9.20999C7.1295 21.5 6.0074 21.0158 5.37566 20.3986C4.74022 19.7778 4.50811 18.9342 4.40712 17.9965L4.40719 17.9964L4.40609 17.9876L3.70657 12.4215C3.59852 11.436 3.59919 10.1997 4.41134 9.29481C4.96992 8.67834 5.84454 8.27951 7.17326 8.13715L7.61999 8.08928V7.63999V7.05999C7.61999 4.7994 9.45184 2.72174 11.5672 2.51776C12.8191 2.40085 14.0189 2.79602 14.9429 3.63931L14.9429 3.63932L14.9451 3.64128C15.8589 4.46544 16.38 5.65 16.38 6.87999V7.63999ZM11.6152 2.912L11.6126 2.91224C10.6198 3.00679 9.72051 3.55361 9.07626 4.30105C8.43121 5.04943 8.00999 6.03476 8.00999 7.05999V7.57999V8.07999H8.50999H15.49H15.99V7.57999V6.87999C15.99 5.76089 15.5218 4.68539 14.6853 3.9291C13.8394 3.16337 12.7507 2.8098 11.6152 2.912ZM8.40999 13.65H8.41999C9.24613 13.65 9.91999 12.9761 9.91999 12.15C9.91999 11.3206 9.24289 10.65 8.40999 10.65C7.58385 10.65 6.90999 11.3238 6.90999 12.15C6.90999 12.9761 7.58385 13.65 8.40999 13.65ZM15.41 13.65H15.42C16.2461 13.65 16.92 12.9761 16.92 12.15C16.92 11.3206 16.2429 10.65 15.41 10.65C14.5838 10.65 13.91 11.3238 13.91 12.15C13.91 12.9761 14.5838 13.65 15.41 13.65Z" fill="#DCC38B" stroke="black"/>
</svg>
