<svg width="24" height="24" viewBox="0 0 24 24" fill="none" xmlns="http://www.w3.org/2000/svg">
<path d="M4.57889 15.1641C4.40054 15.1641 4.233 15.0735 4.13526 14.9212C4.02778 14.7536 4.02409 14.5397 4.12578 14.3682L7.82497 8.13136C7.90637 7.99411 8.04573 7.90085 8.20379 7.87846L15.2002 6.88056C15.3904 6.85395 15.5782 6.93087 15.6938 7.08314C15.8095 7.23514 15.8337 7.43799 15.7573 7.61291L12.957 14.0263C12.8811 14.2002 12.7175 14.3198 12.5286 14.3393L4.63368 15.1609C4.61524 15.163 4.59707 15.1641 4.57889 15.1641ZM8.60237 8.88584L5.56652 14.0044L12.114 13.3232L14.4135 8.05707L8.60237 8.88584Z" fill="#242424"/>
<path d="M4.57892 19.0843C2.12685 19.0843 0.131836 17.0893 0.131836 14.6372C0.131836 12.1851 2.12685 10.1901 4.57892 10.1901C7.031 10.1901 9.02601 12.1851 9.02601 14.6372C9.02628 17.0893 7.03126 19.0843 4.57892 19.0843ZM4.57892 11.2439C2.70773 11.2439 1.18559 12.766 1.18559 14.6372C1.18559 16.5087 2.70773 18.0308 4.57892 18.0308C6.45012 18.0308 7.97226 16.5087 7.97226 14.6372C7.97253 12.766 6.45012 11.2439 4.57892 11.2439Z" fill="#242424"/>
<path d="M19.3941 19.0843C16.9418 19.0843 14.9468 17.0893 14.9468 14.637C14.9468 12.1849 16.9418 10.1899 19.3941 10.1899C21.8465 10.1899 23.8412 12.1849 23.8412 14.6372C23.8412 17.0893 21.8465 19.0843 19.3941 19.0843ZM19.3941 11.2439C17.5227 11.2439 16.0005 12.766 16.0005 14.6372C16.0005 16.5087 17.5227 18.0308 19.3941 18.0308C21.2653 18.0306 22.7875 16.5084 22.7875 14.6372C22.7875 12.766 21.2653 11.2439 19.3941 11.2439Z" fill="#242424"/>
<path d="M19.3947 15.1641C19.21 15.1641 19.0306 15.0669 18.9342 14.8941L13.7864 5.67246C13.6952 5.50913 13.6974 5.30997 13.7919 5.14875C13.8865 4.98779 14.0596 4.88873 14.2464 4.88873H16.4131C16.704 4.88873 16.94 5.12477 16.94 5.41561C16.94 5.70644 16.704 5.94248 16.4131 5.94248H15.1441L19.8544 14.3804C19.9964 14.6343 19.9053 14.9555 19.6513 15.0972C19.5696 15.1425 19.4816 15.1641 19.3947 15.1641Z" fill="#242424"/>
<path d="M12.4745 14.3422C12.3167 14.3422 12.1605 14.2713 12.0567 14.1367L6.63014 7.08844C6.45258 6.85793 6.49579 6.52706 6.72629 6.3495C6.95707 6.17194 7.28794 6.21515 7.46524 6.44566L12.8918 13.4942C13.0693 13.7247 13.0264 14.0556 12.7956 14.2331C12.6997 14.3066 12.5867 14.3422 12.4745 14.3422Z" fill="#242424"/>
<path d="M8.7404 7.29392H5.70876C5.41792 7.29392 5.18188 7.05788 5.18188 6.76705C5.18188 6.47621 5.41792 6.24017 5.70876 6.24017H8.7404C9.03123 6.24017 9.26727 6.47621 9.26727 6.76705C9.26727 7.05788 9.0315 7.29392 8.7404 7.29392Z" fill="#242424"/>
</svg>
