<svg width="16" height="16" viewBox="0 0 16 16" fill="none" xmlns="http://www.w3.org/2000/svg">
<path d="M2 13.3334V4.00002H5.04867L6.282 2.66669H9.718L10.9513 4.00002H14V13.3334H2ZM2.66667 12.6667H13.3333V4.66669H10.6587L9.42933 3.33335H6.57067L5.34133 4.66669H2.66667V12.6667ZM8 11.7947C8.87778 11.7947 9.60556 11.4634 10.1833 10.8007C10.7611 10.138 11.0649 9.35069 11.0947 8.43869L11.8 9.08469L12.218 8.66669L10.8333 7.28202L9.44867 8.66669L9.86667 9.08469L10.5053 8.44602C10.4556 9.18869 10.2011 9.83424 9.742 10.3827C9.28333 10.9311 8.70267 11.2054 8 11.2054C7.864 11.2054 7.73089 11.1914 7.60067 11.1634C7.47044 11.1358 7.34289 11.1027 7.218 11.064L6.76667 11.5154C6.96844 11.5976 7.172 11.6647 7.37733 11.7167C7.58311 11.7687 7.79067 11.7947 8 11.7947ZM5.16667 10.0514L6.55133 8.66669L6.13333 8.24869L5.49467 8.88735C5.54444 8.14469 5.79889 7.49913 6.258 6.95069C6.71667 6.40224 7.29733 6.12802 8 6.12802C8.136 6.12802 8.26911 6.14202 8.39933 6.17002C8.52956 6.19758 8.65711 6.23069 8.782 6.26935L9.23333 5.81802C9.03156 5.7358 8.828 5.66869 8.62267 5.61669C8.41689 5.56469 8.20933 5.53869 8 5.53869C7.12222 5.53869 6.39444 5.87002 5.81667 6.53269C5.23889 7.19535 4.93511 7.98269 4.90533 8.89469L4.2 8.24869L3.782 8.66669L5.16667 10.0514Z" fill="white"/>
</svg>
