<svg width="20" height="18" viewBox="0 0 20 18" fill="none" xmlns="http://www.w3.org/2000/svg">
<path d="M1 7C1 6.057 1 5.586 1.293 5.293C1.586 5 2.057 5 3 5H17C17.943 5 18.414 5 18.707 5.293C19 5.586 19 6.057 19 7V8.5C19 8.966 19 9.199 18.924 9.383C18.8223 9.62754 18.6277 9.82174 18.383 9.923C18.199 10 17.966 10 17.5 10C17.034 10 16.801 10 16.617 10.076C16.3725 10.1777 16.1783 10.3723 16.077 10.617C16 10.801 16 11.034 16 11.5V15C16 15.943 16 16.414 15.707 16.707C15.414 17 14.943 17 14 17H6C5.057 17 4.586 17 4.293 16.707C4 16.414 4 15.943 4 15V11.5C4 11.034 4 10.801 3.924 10.617C3.82229 10.3725 3.62773 10.1783 3.383 10.077C3.199 10 2.966 10 2.5 10C2.034 10 1.801 10 1.617 9.924C1.37246 9.82229 1.17826 9.62773 1.077 9.383C1 9.199 1 8.966 1 8.5V7Z" stroke="#1AC232" stroke-width="1.2"/>
<path d="M3 10H17M10 4.00001V17M10 4.00001L9.121 3.12101C8.05489 2.055 7.25511 1.32249 5.82486 0.845689C5.55939 0.757104 5.27667 0.732879 5 0.775009C4.72333 0.817139 4.46064 0.924419 4.23357 1.08801C4.0065 1.25159 3.82156 1.4668 3.69399 1.71589C3.56643 1.96499 3.49989 2.24083 3.49986 2.52069V2.70269C3.49986 3.51969 4.226 4.242 5 4.5L6 5.00001M10 4.00001L10.879 3.12101C11.9451 2.05503 12.9785 1.32252 14.4087 0.845691C14.6742 0.757106 14.9569 0.73288 15.2336 0.77501C15.5102 0.817141 15.7729 0.924421 16 1.08801C16.2271 1.25159 16.412 1.4668 16.5396 1.7159C16.6671 1.96499 16.7337 2.24083 16.7337 2.52069V2.70269C16.7337 3.51969 15.774 4.74201 15 5.00001H14" stroke="#1AC232" stroke-width="1.2" stroke-linecap="round"/>
</svg>
