<svg width="24" height="24" viewBox="0 0 24 24" fill="none" xmlns="http://www.w3.org/2000/svg">
<g clip-path="url(#clip0_62_1584)">
<path d="M27.3039 0H-3.30387C-4.79295 0 -6 1.22823 -6 2.74343V21.2566C-6 22.7717 -4.79295 24 -3.30387 24H27.3039C28.7929 24 30 22.7718 30 21.2566V2.74343C30 1.22823 28.7929 0 27.3039 0Z" fill="#41479B"/>
<path d="M29.9627 2.28997C29.7502 0.990767 28.641 0 27.3039 0H26.6024L15.1035 7.66593V7.15066e-05H8.89655V7.666L-2.60236 7.15066e-05H-3.30387C-4.641 7.15066e-05 -5.75018 0.990767 -5.96266 2.29004L3.86548 8.84221H-6V15.158H3.86548L-5.96266 21.71C-5.75018 23.0092 -4.641 24 -3.30387 24H-2.60236L8.89655 16.3341V24H15.1035V16.3341L26.6024 24H27.3039C28.641 24 29.7502 23.0093 29.9627 21.71L20.1345 15.1579H30V8.84207H20.1345L29.9627 2.28997Z" fill="#F5F5F5"/>
<path d="M13.8947 0.00012207H10.1053V10.1053H-6.31567V13.8948H10.1053V23.9999H13.8947V13.8948H30.3157V10.1053H13.8947V0.00012207Z" fill="#FF4B55"/>
<path d="M-4.5415 23.8231L8.80768 15.1579H6.48761L-5.6554 23.0402C-5.35827 23.387 -4.97643 23.6587 -4.5415 23.8231Z" fill="#FF4B55"/>
<path d="M18.4667 15.1579H16.1467L29.0761 23.5506C29.4379 23.3129 29.7398 22.992 29.9552 22.6151L18.4667 15.1579Z" fill="#FF4B55"/>
<path d="M-6.02576 1.51682L5.25913 8.84216H7.57921L-5.20828 0.541443C-5.55162 0.797004 -5.83258 1.13112 -6.02576 1.51682Z" fill="#FF4B55"/>
<path d="M17.4778 8.84216L29.643 0.94532C29.3426 0.599683 28.9578 0.329527 28.5199 0.168335L15.1577 8.84216H17.4778Z" fill="#FF4B55"/>
</g>
<defs>
<clipPath id="clip0_62_1584">
<rect width="24" height="24" rx="12" fill="white"/>
</clipPath>
</defs>
</svg>
