<svg width="47" height="63" viewBox="0 0 47 63" fill="none" xmlns="http://www.w3.org/2000/svg">
<path d="M39.953 1.50937H7.0499C5.9229 1.50937 5.00928 2.42299 5.00928 3.54999V36.4531C5.00928 37.5801 5.9229 38.4937 7.0499 38.4937H39.953C41.08 38.4937 41.9937 37.5801 41.9937 36.4531V3.54999C41.9937 2.42299 41.08 1.50937 39.953 1.50937Z" fill="#3D5A98"/>
<path d="M30.5251 38.4906V24.1688H35.3313L36.0501 18.5875H30.5251V15.025C30.5251 13.4094 30.9751 12.3063 33.2907 12.3063H36.247V7.30626C34.8155 7.15706 33.3769 7.08613 31.9376 7.09376C27.6813 7.09376 24.7501 9.68751 24.7501 14.4719V18.5875H19.9438V24.1688H24.7501V38.4906H30.5251Z" fill="white"/>
<path d="M0.880682 59V51.7273H5.24148V52.5085H1.76136V54.9659H4.91477V55.7472H1.76136V59H0.880682ZM8.2413 59.1278C7.89566 59.1278 7.58197 59.0627 7.30025 58.9325C7.01853 58.8 6.7948 58.6094 6.62908 58.3608C6.46336 58.1098 6.3805 57.8068 6.3805 57.4517C6.3805 57.1392 6.44206 56.8859 6.56516 56.6918C6.68827 56.4953 6.85281 56.3414 7.05877 56.2301C7.26474 56.1188 7.49201 56.036 7.74059 55.9815C7.99154 55.9247 8.24367 55.8797 8.49698 55.8466C8.82842 55.804 9.09712 55.772 9.30309 55.7507C9.51142 55.727 9.66294 55.688 9.75763 55.6335C9.8547 55.5791 9.90323 55.4844 9.90323 55.3494V55.321C9.90323 54.9706 9.80735 54.6984 9.61559 54.5043C9.4262 54.3101 9.13855 54.2131 8.75266 54.2131C8.35257 54.2131 8.03889 54.3007 7.81161 54.4759C7.58434 54.651 7.42454 54.8381 7.33221 55.0369L6.53675 54.7528C6.6788 54.4214 6.86819 54.1634 7.10494 53.9787C7.34405 53.7917 7.60446 53.6615 7.88619 53.5881C8.17028 53.5123 8.44963 53.4744 8.72425 53.4744C8.89944 53.4744 9.10067 53.4957 9.32795 53.5384C9.55759 53.5786 9.77894 53.6626 9.99201 53.7905C10.2074 53.9183 10.3862 54.1113 10.5282 54.3693C10.6703 54.6274 10.7413 54.973 10.7413 55.4062V59H9.90323V58.2614H9.86062C9.8038 58.3797 9.7091 58.5064 9.57653 58.6413C9.44395 58.7763 9.26758 58.8911 9.04741 58.9858C8.82724 59.0805 8.55853 59.1278 8.2413 59.1278ZM8.36914 58.375C8.70058 58.375 8.97994 58.3099 9.20721 58.1797C9.43685 58.0495 9.60967 57.8814 9.72567 57.6754C9.84405 57.4695 9.90323 57.2528 9.90323 57.0256V56.2585C9.86772 56.3011 9.7896 56.3402 9.66886 56.3757C9.55049 56.4089 9.41317 56.4384 9.25692 56.4645C9.10304 56.4882 8.95271 56.5095 8.80593 56.5284C8.66152 56.545 8.54433 56.5592 8.45437 56.571C8.23656 56.5994 8.03297 56.6456 7.84357 56.7095C7.65655 56.7711 7.50503 56.8646 7.38903 56.9901C7.27539 57.1132 7.21857 57.2812 7.21857 57.4943C7.21857 57.7855 7.32629 58.0057 7.54173 58.1548C7.75953 58.3016 8.03533 58.375 8.36914 58.375ZM14.4869 59.1136C13.9755 59.1136 13.5352 58.9929 13.1658 58.7514C12.7965 58.5099 12.5124 58.1773 12.3136 57.7536C12.1147 57.3298 12.0153 56.8456 12.0153 56.3011C12.0153 55.7472 12.1171 55.2583 12.3207 54.8345C12.5266 54.4084 12.8131 54.0758 13.18 53.8366C13.5494 53.5952 13.9802 53.4744 14.4727 53.4744C14.8562 53.4744 15.2018 53.5455 15.5096 53.6875C15.8174 53.8295 16.0695 54.0284 16.266 54.2841C16.4625 54.5398 16.5844 54.8381 16.6317 55.179H15.7937C15.7298 54.9304 15.5877 54.7102 15.3675 54.5185C15.1497 54.3243 14.8562 54.2273 14.4869 54.2273C14.1602 54.2273 13.8737 54.3125 13.6275 54.483C13.3836 54.651 13.1931 54.889 13.0558 55.1967C12.9208 55.5021 12.8533 55.8608 12.8533 56.2727C12.8533 56.6941 12.9196 57.0611 13.0522 57.3736C13.1871 57.6861 13.3765 57.9287 13.6204 58.1016C13.8666 58.2744 14.1554 58.3608 14.4869 58.3608C14.7047 58.3608 14.9023 58.3229 15.0799 58.2472C15.2575 58.1714 15.4078 58.0625 15.5309 57.9205C15.654 57.7784 15.7416 57.608 15.7937 57.4091H16.6317C16.5844 57.7311 16.4672 58.0211 16.2802 58.2791C16.0955 58.5348 15.8505 58.7384 15.5451 58.8899C15.2421 59.0391 14.8893 59.1136 14.4869 59.1136ZM20.1438 59.1136C19.6183 59.1136 19.1649 58.9976 18.7837 58.7656C18.4049 58.5312 18.1126 58.2045 17.9066 57.7855C17.703 57.3641 17.6012 56.8741 17.6012 56.3153C17.6012 55.7566 17.703 55.2642 17.9066 54.8381C18.1126 54.4096 18.399 54.0758 18.766 53.8366C19.1353 53.5952 19.5662 53.4744 20.0586 53.4744C20.3427 53.4744 20.6232 53.5218 20.9002 53.6165C21.1772 53.7112 21.4293 53.8651 21.6566 54.0781C21.8839 54.2888 22.065 54.5682 22.1999 54.9162C22.3349 55.2642 22.4023 55.6927 22.4023 56.2017V56.5568H18.1978V55.8324H21.5501C21.5501 55.5246 21.4885 55.25 21.3654 55.0085C21.2447 54.767 21.0719 54.5765 20.8469 54.4368C20.6244 54.2971 20.3616 54.2273 20.0586 54.2273C19.7248 54.2273 19.436 54.3101 19.1921 54.4759C18.9506 54.6392 18.7648 54.8523 18.6346 55.1151C18.5044 55.3778 18.4393 55.6596 18.4393 55.9602V56.4432C18.4393 56.8551 18.5103 57.2043 18.6523 57.4908C18.7968 57.7749 18.9968 57.9915 19.2525 58.1406C19.5082 58.2874 19.8053 58.3608 20.1438 58.3608C20.364 58.3608 20.5629 58.33 20.7404 58.2685C20.9203 58.2045 21.0754 58.1098 21.2056 57.9844C21.3358 57.8565 21.4364 57.6979 21.5075 57.5085L22.3171 57.7358C22.2319 58.0104 22.0887 58.2519 21.8874 58.4602C21.6862 58.6662 21.4376 58.8272 21.1417 58.9432C20.8458 59.0568 20.5131 59.1136 20.1438 59.1136ZM23.7908 59V51.7273H24.6289V54.4119H24.6999C24.7615 54.3172 24.8467 54.1965 24.9556 54.0497C25.0669 53.9006 25.2255 53.768 25.4315 53.652C25.6398 53.5336 25.9215 53.4744 26.2766 53.4744C26.7359 53.4744 27.1407 53.5893 27.4911 53.8189C27.8415 54.0485 28.1149 54.3741 28.3114 54.7955C28.5079 55.2169 28.6062 55.714 28.6062 56.2869C28.6062 56.8646 28.5079 57.3653 28.3114 57.7891C28.1149 58.2105 27.8427 58.5372 27.4947 58.7692C27.1467 58.9988 26.7454 59.1136 26.2908 59.1136C25.9405 59.1136 25.6599 59.0556 25.4492 58.9396C25.2385 58.8213 25.0763 58.6875 24.9627 58.5384C24.8491 58.3868 24.7615 58.2614 24.6999 58.1619H24.6005V59H23.7908ZM24.6147 56.2727C24.6147 56.6847 24.6751 57.0481 24.7958 57.3629C24.9165 57.6754 25.0929 57.9205 25.3249 58.098C25.5569 58.2732 25.841 58.3608 26.1772 58.3608C26.5276 58.3608 26.82 58.2685 27.0543 58.0838C27.2911 57.8968 27.4686 57.6458 27.587 57.331C27.7077 57.0137 27.7681 56.661 27.7681 56.2727C27.7681 55.8892 27.7089 55.5436 27.5906 55.2358C27.4746 54.9257 27.2982 54.6806 27.0614 54.5007C26.8271 54.3184 26.5323 54.2273 26.1772 54.2273C25.8363 54.2273 25.5498 54.3137 25.3178 54.4865C25.0858 54.657 24.9106 54.8961 24.7923 55.2038C24.6739 55.5092 24.6147 55.8655 24.6147 56.2727ZM32.104 59.1136C31.6116 59.1136 31.1796 58.9964 30.8079 58.7621C30.4386 58.5277 30.1497 58.1998 29.9414 57.7784C29.7354 57.357 29.6325 56.8646 29.6325 56.3011C29.6325 55.733 29.7354 55.237 29.9414 54.8132C30.1497 54.3894 30.4386 54.0604 30.8079 53.826C31.1796 53.5916 31.6116 53.4744 32.104 53.4744C32.5965 53.4744 33.0273 53.5916 33.3967 53.826C33.7683 54.0604 34.0572 54.3894 34.2631 54.8132C34.4715 55.237 34.5756 55.733 34.5756 56.3011C34.5756 56.8646 34.4715 57.357 34.2631 57.7784C34.0572 58.1998 33.7683 58.5277 33.3967 58.7621C33.0273 58.9964 32.5965 59.1136 32.104 59.1136ZM32.104 58.3608C32.4781 58.3608 32.7859 58.2649 33.0273 58.0732C33.2688 57.8814 33.4476 57.6293 33.5636 57.3168C33.6796 57.0043 33.7376 56.6657 33.7376 56.3011C33.7376 55.9366 33.6796 55.5968 33.5636 55.282C33.4476 54.9671 33.2688 54.7126 33.0273 54.5185C32.7859 54.3243 32.4781 54.2273 32.104 54.2273C31.73 54.2273 31.4222 54.3243 31.1808 54.5185C30.9393 54.7126 30.7605 54.9671 30.6445 55.282C30.5285 55.5968 30.4705 55.9366 30.4705 56.3011C30.4705 56.6657 30.5285 57.0043 30.6445 57.3168C30.7605 57.6293 30.9393 57.8814 31.1808 58.0732C31.4222 58.2649 31.73 58.3608 32.104 58.3608ZM38.0708 59.1136C37.5784 59.1136 37.1464 58.9964 36.7747 58.7621C36.4054 58.5277 36.1165 58.1998 35.9082 57.7784C35.7022 57.357 35.5993 56.8646 35.5993 56.3011C35.5993 55.733 35.7022 55.237 35.9082 54.8132C36.1165 54.3894 36.4054 54.0604 36.7747 53.826C37.1464 53.5916 37.5784 53.4744 38.0708 53.4744C38.5633 53.4744 38.9941 53.5916 39.3635 53.826C39.7351 54.0604 40.024 54.3894 40.2299 54.8132C40.4383 55.237 40.5424 55.733 40.5424 56.3011C40.5424 56.8646 40.4383 57.357 40.2299 57.7784C40.024 58.1998 39.7351 58.5277 39.3635 58.7621C38.9941 58.9964 38.5633 59.1136 38.0708 59.1136ZM38.0708 58.3608C38.4449 58.3608 38.7527 58.2649 38.9941 58.0732C39.2356 57.8814 39.4144 57.6293 39.5304 57.3168C39.6464 57.0043 39.7044 56.6657 39.7044 56.3011C39.7044 55.9366 39.6464 55.5968 39.5304 55.282C39.4144 54.9671 39.2356 54.7126 38.9941 54.5185C38.7527 54.3243 38.4449 54.2273 38.0708 54.2273C37.6968 54.2273 37.389 54.3243 37.1475 54.5185C36.9061 54.7126 36.7273 54.9671 36.6113 55.282C36.4953 55.5968 36.4373 55.9366 36.4373 56.3011C36.4373 56.6657 36.4953 57.0043 36.6113 57.3168C36.7273 57.6293 36.9061 57.8814 37.1475 58.0732C37.389 58.2649 37.6968 58.3608 38.0708 58.3608ZM42.603 57.0114L42.5888 55.9744H42.7592L45.1456 53.5455H46.1825L43.6399 56.1165H43.5689L42.603 57.0114ZM41.8217 59V51.7273H42.6598V59H41.8217ZM45.2876 59L43.157 56.3011L43.7536 55.7188L46.353 59H45.2876Z" fill="#242424"/>
</svg>
