<svg width="19" height="18" viewBox="0 0 19 18" fill="none" xmlns="http://www.w3.org/2000/svg">
<path d="M10.75 4.5V8.57531L14.1363 10.6069C14.3068 10.7093 14.4297 10.8753 14.4779 11.0684C14.5261 11.2614 14.4956 11.4657 14.3931 11.6362C14.2907 11.8068 14.1247 11.9297 13.9316 11.9779C13.7386 12.0261 13.5343 11.9956 13.3638 11.8931L9.61375 9.64312C9.50276 9.57644 9.41093 9.48216 9.34719 9.36946C9.28344 9.25676 9.24996 9.12948 9.25 9V4.5C9.25 4.30109 9.32902 4.11032 9.46967 3.96967C9.61032 3.82902 9.80109 3.75 10 3.75C10.1989 3.75 10.3897 3.82902 10.5303 3.96967C10.671 4.11032 10.75 4.30109 10.75 4.5ZM10 -2.75705e-06C8.81687 -0.00294983 7.64491 0.228779 6.55193 0.681773C5.45895 1.13477 4.46667 1.80003 3.6325 2.63906C2.95094 3.32906 2.34531 3.99281 1.75 4.6875V3C1.75 2.80109 1.67098 2.61032 1.53033 2.46967C1.38968 2.32902 1.19891 2.25 1 2.25C0.801088 2.25 0.610322 2.32902 0.46967 2.46967C0.329018 2.61032 0.25 2.80109 0.25 3V6.75C0.25 6.94891 0.329018 7.13968 0.46967 7.28033C0.610322 7.42098 0.801088 7.5 1 7.5H4.75C4.94891 7.5 5.13968 7.42098 5.28033 7.28033C5.42098 7.13968 5.5 6.94891 5.5 6.75C5.5 6.55109 5.42098 6.36032 5.28033 6.21967C5.13968 6.07902 4.94891 6 4.75 6H2.59375C3.26406 5.21062 3.93156 4.46719 4.69281 3.69656C5.73518 2.6542 7.0616 1.94213 8.50635 1.64932C9.95109 1.35651 11.4501 1.49594 12.816 2.0502C14.182 2.60446 15.3543 3.54896 16.1866 4.76569C17.0188 5.98242 17.474 7.41742 17.4953 8.89139C17.5166 10.3654 17.1031 11.8129 16.3064 13.0532C15.5098 14.2935 14.3652 15.2715 13.0159 15.8651C11.6665 16.4586 10.1722 16.6413 8.71959 16.3904C7.26698 16.1395 5.92052 15.4661 4.84844 14.4544C4.77679 14.3867 4.6925 14.3337 4.60039 14.2986C4.50828 14.2634 4.41015 14.2468 4.3116 14.2496C4.21305 14.2524 4.11602 14.2745 4.02604 14.3148C3.93606 14.3551 3.8549 14.4127 3.78719 14.4844C3.71947 14.556 3.66654 14.6403 3.6314 14.7324C3.59626 14.8245 3.57961 14.9227 3.5824 15.0212C3.58518 15.1198 3.60735 15.2168 3.64764 15.3068C3.68792 15.3967 3.74554 15.4779 3.81719 15.5456C4.88542 16.5537 6.18414 17.285 7.6 17.6757C9.01587 18.0664 10.5058 18.1047 11.9399 17.7872C13.3739 17.4696 14.7085 16.8059 15.827 15.854C16.9456 14.9021 17.8142 13.6909 18.357 12.3261C18.8998 10.9613 19.1003 9.48436 18.9411 8.02423C18.7818 6.56411 18.2677 5.16514 17.4434 3.94943C16.6192 2.73373 15.5099 1.73822 14.2125 1.04979C12.915 0.36137 11.4688 0.000953238 10 -2.75705e-06Z" fill="#1AC232"/>
</svg>
