<svg width="22" height="20" viewBox="0 0 22 20" fill="none" xmlns="http://www.w3.org/2000/svg">
<path d="M9.04267 1.15016L9.04306 1.14985C10.1273 0.279042 11.8675 0.284136 12.968 1.16073C12.9681 1.16084 12.9682 1.16094 12.9684 1.16105L19.514 6.39756C19.5146 6.39802 19.5152 6.39849 19.5157 6.39895C19.893 6.70711 20.2196 7.18942 20.4304 7.74099C20.641 8.29218 20.7196 8.86987 20.6462 9.35096L19.3873 16.8845C19.3872 16.885 19.3872 16.8855 19.3871 16.8859C19.1374 18.3188 17.7432 19.5 16.3 19.5H5.69996C4.23549 19.5 2.8725 18.3476 2.62294 16.8965C2.62288 16.8961 2.62282 16.8958 2.62276 16.8955L1.36313 9.35761L1.36293 9.35646C1.28079 8.8718 1.35452 8.29296 1.56465 7.74192C1.77476 7.19094 2.10548 6.70909 2.4918 6.40086L2.49267 6.40016L9.04267 1.15016ZM11 17.25C11.6861 17.25 12.25 16.6862 12.25 16V13C12.25 12.3139 11.6861 11.75 11 11.75C10.3138 11.75 9.74996 12.3139 9.74996 13V16C9.74996 16.6862 10.3138 17.25 11 17.25Z" fill="#DCC38B" stroke="black"/>
</svg>
