<svg width="48" height="63" viewBox="0 0 48 63" fill="none" xmlns="http://www.w3.org/2000/svg">
<g clip-path="url(#clip0_327_8493)">
<path d="M34.625 0H13.375C8.19733 0 4 4.19733 4 9.375V30.625C4 35.8027 8.19733 40 13.375 40H34.625C39.8027 40 44 35.8027 44 30.625V9.375C44 4.19733 39.8027 0 34.625 0Z" fill="url(#paint0_radial_327_8493)"/>
<path d="M34.625 0H13.375C8.19733 0 4 4.19733 4 9.375V30.625C4 35.8027 8.19733 40 13.375 40H34.625C39.8027 40 44 35.8027 44 30.625V9.375C44 4.19733 39.8027 0 34.625 0Z" fill="url(#paint1_radial_327_8493)"/>
<path d="M24.0014 4.375C19.758 4.375 19.2253 4.39359 17.5588 4.46938C15.8953 4.54563 14.7598 4.80891 13.7664 5.19531C12.7386 5.59438 11.8669 6.12828 10.9984 6.99703C10.1292 7.86562 9.59531 8.73734 9.195 9.76469C8.8075 10.7584 8.54391 11.8944 8.46906 13.557C8.39453 15.2238 8.375 15.7566 8.375 20.0002C8.375 24.2438 8.39375 24.7747 8.46938 26.4412C8.54594 28.1047 8.80922 29.2402 9.19531 30.2336C9.59469 31.2614 10.1286 32.1331 10.9973 33.0016C11.8656 33.8708 12.7373 34.4059 13.7644 34.805C14.7586 35.1914 15.8942 35.4547 17.5573 35.5309C19.2241 35.6067 19.7563 35.6253 23.9995 35.6253C28.2434 35.6253 28.7744 35.6067 30.4409 35.5309C32.1044 35.4547 33.2411 35.1914 34.2353 34.805C35.2627 34.4059 36.1331 33.8708 37.0012 33.0016C37.8705 32.1331 38.4042 31.2614 38.8047 30.2341C39.1887 29.2402 39.4525 28.1044 39.5306 26.4416C39.6055 24.775 39.625 24.2438 39.625 20.0002C39.625 15.7566 39.6055 15.2241 39.5306 13.5573C39.4525 11.8939 39.1887 10.7586 38.8047 9.76516C38.4042 8.73734 37.8705 7.86562 37.0012 6.99703C36.1322 6.12797 35.263 5.59406 34.2344 5.19547C33.2383 4.80891 32.1022 4.54547 30.4387 4.46938C28.772 4.39359 28.2414 4.375 23.9966 4.375H24.0014ZM22.5997 7.19078C23.0158 7.19016 23.48 7.19078 24.0014 7.19078C28.1734 7.19078 28.6678 7.20578 30.3153 7.28063C31.8387 7.35031 32.6656 7.60484 33.2164 7.81875C33.9456 8.10188 34.4655 8.44047 35.012 8.9875C35.5589 9.53438 35.8973 10.0552 36.1813 10.7844C36.3952 11.3344 36.65 12.1613 36.7194 13.6847C36.7942 15.3319 36.8105 15.8266 36.8105 19.9966C36.8105 24.1666 36.7942 24.6614 36.7194 26.3084C36.6497 27.8319 36.3952 28.6587 36.1813 29.2089C35.8981 29.9381 35.5589 30.4573 35.012 31.0039C34.4652 31.5508 33.9459 31.8892 33.2164 32.1725C32.6663 32.3873 31.8387 32.6413 30.3153 32.7109C28.6681 32.7858 28.1734 32.802 24.0014 32.802C19.8292 32.802 19.3347 32.7858 17.6877 32.7109C16.1642 32.6406 15.3373 32.3861 14.7861 32.1722C14.057 31.8889 13.5361 31.5505 12.9892 31.0036C12.4423 30.4567 12.1039 29.9372 11.82 29.2077C11.6061 28.6575 11.3512 27.8306 11.2819 26.3072C11.207 24.66 11.192 24.1653 11.192 19.9927C11.192 15.8202 11.207 15.328 11.2819 13.6808C11.3516 12.1573 11.6061 11.3305 11.82 10.7797C12.1033 10.0505 12.4423 9.52969 12.9894 8.98281C13.5363 8.43594 14.057 8.09734 14.7862 7.81359C15.337 7.59875 16.1642 7.34484 17.6877 7.27484C19.1291 7.20969 19.6877 7.19016 22.5997 7.18687V7.19078ZM32.342 9.78516C31.3069 9.78516 30.467 10.6242 30.467 11.6595C30.467 12.6947 31.3069 13.5345 32.342 13.5345C33.3772 13.5345 34.217 12.6947 34.217 11.6595C34.217 10.6244 33.3772 9.78453 32.342 9.78453V9.78516ZM24.0014 11.9759C19.5702 11.9759 15.9773 15.5688 15.9773 20.0002C15.9773 24.4316 19.5702 28.0227 24.0014 28.0227C28.4328 28.0227 32.0244 24.4316 32.0244 20.0002C32.0244 15.5689 28.4325 11.9759 24.0011 11.9759H24.0014ZM24.0014 14.7917C26.8778 14.7917 29.2098 17.1234 29.2098 20.0002C29.2098 22.8766 26.8778 25.2086 24.0014 25.2086C21.1248 25.2086 18.7931 22.8766 18.7931 20.0002C18.7931 17.1234 21.1248 14.7917 24.0014 14.7917Z" fill="white"/>
</g>
<path d="M1.76136 51.7273V59H0.880682V51.7273H1.76136ZM4.2516 55.7188V59H3.41353V53.5455H4.22319V54.3977H4.29421C4.42205 54.1207 4.61618 53.8982 4.8766 53.7301C5.13701 53.5597 5.47319 53.4744 5.88512 53.4744C6.25444 53.4744 6.57759 53.5502 6.85458 53.7017C7.13157 53.8509 7.34701 54.0781 7.50089 54.3835C7.65477 54.6866 7.73171 55.0701 7.73171 55.5341V59H6.89364V55.5909C6.89364 55.1624 6.78237 54.8286 6.55984 54.5895C6.3373 54.348 6.0319 54.2273 5.64364 54.2273C5.37612 54.2273 5.13701 54.2853 4.92631 54.4013C4.71798 54.5173 4.55344 54.6866 4.43271 54.9091C4.31197 55.1316 4.2516 55.4015 4.2516 55.7188ZM13.1268 54.767L12.3739 54.9801C12.3266 54.8546 12.2567 54.7327 12.1644 54.6143C12.0745 54.4936 11.9513 54.3942 11.7951 54.3161C11.6388 54.2379 11.4388 54.1989 11.195 54.1989C10.8612 54.1989 10.583 54.2758 10.3604 54.4297C10.1403 54.5812 10.0302 54.7741 10.0302 55.0085C10.0302 55.2169 10.1059 55.3814 10.2575 55.5021C10.409 55.6229 10.6457 55.7235 10.9677 55.804L11.7773 56.0028C12.265 56.1212 12.6284 56.3023 12.8675 56.5462C13.1067 56.7876 13.2262 57.099 13.2262 57.4801C13.2262 57.7926 13.1362 58.072 12.9563 58.3182C12.7788 58.5644 12.5302 58.7585 12.2106 58.9006C11.891 59.0426 11.5193 59.1136 11.0955 59.1136C10.5392 59.1136 10.0787 58.9929 9.71413 58.7514C9.34955 58.5099 9.11873 58.1572 9.02166 57.6932L9.81712 57.4943C9.89287 57.7879 10.0361 58.008 10.2468 58.1548C10.4599 58.3016 10.738 58.375 11.0813 58.375C11.4719 58.375 11.7821 58.2921 12.0117 58.1264C12.2437 57.9583 12.3597 57.7571 12.3597 57.5227C12.3597 57.3333 12.2934 57.1747 12.1609 57.0469C12.0283 56.9167 11.8247 56.8196 11.5501 56.7557L10.641 56.5426C10.1415 56.4242 9.7745 56.2408 9.54013 55.9922C9.30812 55.7412 9.19212 55.4276 9.19212 55.0511C9.19212 54.7434 9.27853 54.4711 9.45135 54.2344C9.62654 53.9976 9.86447 53.8118 10.1651 53.6768C10.4682 53.5419 10.8114 53.4744 11.195 53.4744C11.7347 53.4744 12.1585 53.5928 12.4663 53.8295C12.7764 54.0663 12.9966 54.3788 13.1268 54.767ZM16.8599 53.5455V54.2557H14.0332V53.5455H16.8599ZM14.8571 52.2386H15.6951V57.4375C15.6951 57.6742 15.7295 57.8518 15.7981 57.9702C15.8691 58.0862 15.9591 58.1643 16.068 58.2045C16.1793 58.2424 16.2965 58.2614 16.4196 58.2614C16.5119 58.2614 16.5877 58.2566 16.6468 58.2472C16.706 58.2353 16.7534 58.2259 16.7889 58.2188L16.9593 58.9716C16.9025 58.9929 16.8232 59.0142 16.7214 59.0355C16.6196 59.0592 16.4906 59.071 16.3343 59.071C16.0976 59.071 15.8656 59.0201 15.6383 58.9183C15.4134 58.8165 15.2264 58.6615 15.0772 58.4531C14.9305 58.2448 14.8571 57.982 14.8571 57.6648V52.2386ZM19.7257 59.1278C19.38 59.1278 19.0663 59.0627 18.7846 58.9325C18.5029 58.8 18.2792 58.6094 18.1135 58.3608C17.9477 58.1098 17.8649 57.8068 17.8649 57.4517C17.8649 57.1392 17.9264 56.8859 18.0495 56.6918C18.1726 56.4953 18.3372 56.3414 18.5431 56.2301C18.7491 56.1188 18.9764 56.036 19.225 55.9815C19.4759 55.9247 19.728 55.8797 19.9814 55.8466C20.3128 55.804 20.5815 55.772 20.7875 55.7507C20.9958 55.727 21.1473 55.688 21.242 55.6335C21.3391 55.5791 21.3876 55.4844 21.3876 55.3494V55.321C21.3876 54.9706 21.2917 54.6984 21.1 54.5043C20.9106 54.3101 20.6229 54.2131 20.237 54.2131C19.8369 54.2131 19.5233 54.3007 19.296 54.4759C19.0687 54.651 18.9089 54.8381 18.8166 55.0369L18.0211 54.7528C18.1632 54.4214 18.3526 54.1634 18.5893 53.9787C18.8284 53.7917 19.0888 53.6615 19.3706 53.5881C19.6547 53.5123 19.934 53.4744 20.2086 53.4744C20.3838 53.4744 20.585 53.4957 20.8123 53.5384C21.042 53.5786 21.2633 53.6626 21.4764 53.7905C21.6918 53.9183 21.8706 54.1113 22.0126 54.3693C22.1547 54.6274 22.2257 54.973 22.2257 55.4062V59H21.3876V58.2614H21.345C21.2882 58.3797 21.1935 58.5064 21.0609 58.6413C20.9283 58.7763 20.752 58.8911 20.5318 58.9858C20.3116 59.0805 20.0429 59.1278 19.7257 59.1278ZM19.8535 58.375C20.185 58.375 20.4643 58.3099 20.6916 58.1797C20.9212 58.0495 21.094 57.8814 21.21 57.6754C21.3284 57.4695 21.3876 57.2528 21.3876 57.0256V56.2585C21.3521 56.3011 21.274 56.3402 21.1532 56.3757C21.0349 56.4089 20.8975 56.4384 20.7413 56.4645C20.5874 56.4882 20.4371 56.5095 20.2903 56.5284C20.1459 56.545 20.0287 56.5592 19.9387 56.571C19.7209 56.5994 19.5173 56.6456 19.3279 56.7095C19.1409 56.7711 18.9894 56.8646 18.8734 56.9901C18.7598 57.1132 18.7029 57.2812 18.7029 57.4943C18.7029 57.7855 18.8107 58.0057 19.0261 58.1548C19.2439 58.3016 19.5197 58.375 19.8535 58.375ZM25.957 61.1591C25.5522 61.1591 25.2042 61.107 24.913 61.0028C24.6218 60.901 24.3791 60.7661 24.185 60.598C23.9933 60.4323 23.8406 60.2547 23.7269 60.0653L24.3945 59.5966C24.4703 59.696 24.5662 59.8097 24.6822 59.9375C24.7982 60.0677 24.9568 60.1802 25.158 60.2749C25.3616 60.3719 25.628 60.4205 25.957 60.4205C26.3974 60.4205 26.7608 60.3139 27.0472 60.1009C27.3337 59.8878 27.4769 59.554 27.4769 59.0994V57.9915H27.4059C27.3443 58.0909 27.2567 58.214 27.1431 58.3608C27.0318 58.5052 26.8709 58.6342 26.6602 58.7479C26.4518 58.8591 26.1701 58.9148 25.815 58.9148C25.3746 58.9148 24.9793 58.8106 24.6289 58.6023C24.2809 58.3939 24.0051 58.0909 23.8015 57.6932C23.6003 57.2955 23.4996 56.8125 23.4996 56.2443C23.4996 55.6856 23.5979 55.1991 23.7944 54.7848C23.9909 54.3681 24.2643 54.0462 24.6147 53.8189C24.9651 53.5893 25.3699 53.4744 25.8292 53.4744C26.1843 53.4744 26.466 53.5336 26.6744 53.652C26.8851 53.768 27.046 53.9006 27.1573 54.0497C27.271 54.1965 27.3585 54.3172 27.4201 54.4119H27.5053V53.5455H28.315V59.1562C28.315 59.625 28.2085 60.0062 27.9954 60.2997C27.7847 60.5956 27.5006 60.8123 27.1431 60.9496C26.788 61.0893 26.3926 61.1591 25.957 61.1591ZM25.9286 58.1619C26.2648 58.1619 26.5489 58.085 26.7809 57.9311C27.0129 57.7772 27.1893 57.5559 27.31 57.267C27.4308 56.9782 27.4911 56.6326 27.4911 56.2301C27.4911 55.8371 27.4319 55.4903 27.3136 55.1896C27.1952 54.889 27.02 54.6534 26.788 54.483C26.556 54.3125 26.2695 54.2273 25.9286 54.2273C25.5735 54.2273 25.2776 54.3172 25.0408 54.4972C24.8065 54.6771 24.6301 54.9186 24.5117 55.2216C24.3957 55.5246 24.3377 55.8608 24.3377 56.2301C24.3377 56.6089 24.3969 56.9439 24.5153 57.2351C24.636 57.5239 24.8136 57.7512 25.0479 57.9169C25.2847 58.0803 25.5782 58.1619 25.9286 58.1619ZM29.8491 59V53.5455H30.6587V54.3693H30.7156C30.815 54.0994 30.9949 53.8804 31.2553 53.7124C31.5157 53.5443 31.8093 53.4602 32.136 53.4602C32.1976 53.4602 32.2745 53.4614 32.3668 53.4638C32.4592 53.4661 32.529 53.4697 32.5763 53.4744V54.3267C32.5479 54.3196 32.4828 54.3089 32.381 54.2947C32.2816 54.2782 32.1763 54.2699 32.065 54.2699C31.7998 54.2699 31.5631 54.3255 31.3548 54.4368C31.1488 54.5457 30.9854 54.6972 30.8647 54.8913C30.7463 55.0831 30.6871 55.3021 30.6871 55.5483V59H29.8491ZM35.1749 59.1278C34.8292 59.1278 34.5156 59.0627 34.2338 58.9325C33.9521 58.8 33.7284 58.6094 33.5627 58.3608C33.397 58.1098 33.3141 57.8068 33.3141 57.4517C33.3141 57.1392 33.3757 56.8859 33.4988 56.6918C33.6219 56.4953 33.7864 56.3414 33.9924 56.2301C34.1983 56.1188 34.4256 56.036 34.6742 55.9815C34.9251 55.9247 35.1773 55.8797 35.4306 55.8466C35.762 55.804 36.0307 55.772 36.2367 55.7507C36.445 55.727 36.5965 55.688 36.6912 55.6335C36.7883 55.5791 36.8368 55.4844 36.8368 55.3494V55.321C36.8368 54.9706 36.7409 54.6984 36.5492 54.5043C36.3598 54.3101 36.0721 54.2131 35.6863 54.2131C35.2862 54.2131 34.9725 54.3007 34.7452 54.4759C34.5179 54.651 34.3581 54.8381 34.2658 55.0369L33.4703 54.7528C33.6124 54.4214 33.8018 54.1634 34.0385 53.9787C34.2776 53.7917 34.5381 53.6615 34.8198 53.5881C35.1039 53.5123 35.3832 53.4744 35.6578 53.4744C35.833 53.4744 36.0343 53.4957 36.2615 53.5384C36.4912 53.5786 36.7125 53.6626 36.9256 53.7905C37.141 53.9183 37.3198 54.1113 37.4618 54.3693C37.6039 54.6274 37.6749 54.973 37.6749 55.4062V59H36.8368V58.2614H36.7942C36.7374 58.3797 36.6427 58.5064 36.5101 58.6413C36.3775 58.7763 36.2012 58.8911 35.981 58.9858C35.7608 59.0805 35.4921 59.1278 35.1749 59.1278ZM35.3027 58.375C35.6342 58.375 35.9135 58.3099 36.1408 58.1797C36.3704 58.0495 36.5433 57.8814 36.6593 57.6754C36.7776 57.4695 36.8368 57.2528 36.8368 57.0256V56.2585C36.8013 56.3011 36.7232 56.3402 36.6025 56.3757C36.4841 56.4089 36.3468 56.4384 36.1905 56.4645C36.0366 56.4882 35.8863 56.5095 35.7395 56.5284C35.5951 56.545 35.4779 56.5592 35.388 56.571C35.1702 56.5994 34.9666 56.6456 34.7772 56.7095C34.5901 56.7711 34.4386 56.8646 34.3226 56.9901C34.209 57.1132 34.1522 57.2812 34.1522 57.4943C34.1522 57.7855 34.2599 58.0057 34.4753 58.1548C34.6931 58.3016 34.9689 58.375 35.3027 58.375ZM39.2045 59V53.5455H40.0142V54.3977H40.0852C40.1989 54.1065 40.3823 53.8804 40.6357 53.7195C40.889 53.5561 41.1932 53.4744 41.5483 53.4744C41.9081 53.4744 42.2076 53.5561 42.4467 53.7195C42.6882 53.8804 42.8764 54.1065 43.0114 54.3977H43.0682C43.2079 54.116 43.4174 53.8923 43.6967 53.7266C43.9761 53.5585 44.3111 53.4744 44.7017 53.4744C45.1894 53.4744 45.5883 53.6271 45.8984 53.9325C46.2086 54.2356 46.3636 54.7079 46.3636 55.3494V59H45.5256V55.3494C45.5256 54.947 45.4155 54.6593 45.1953 54.4865C44.9751 54.3137 44.7159 54.2273 44.4176 54.2273C44.0341 54.2273 43.737 54.3433 43.5263 54.5753C43.3156 54.8049 43.2102 55.0961 43.2102 55.4489V59H42.358V55.2642C42.358 54.9541 42.2573 54.7043 42.0561 54.5149C41.8549 54.3232 41.5956 54.2273 41.2784 54.2273C41.0606 54.2273 40.857 54.2853 40.6676 54.4013C40.4806 54.5173 40.3291 54.6783 40.2131 54.8842C40.0994 55.0878 40.0426 55.3234 40.0426 55.5909V59H39.2045Z" fill="#242424"/>
<defs>
<radialGradient id="paint0_radial_327_8493" cx="0" cy="0" r="1" gradientUnits="userSpaceOnUse" gradientTransform="translate(14.625 43.0808) rotate(-90) scale(39.643 36.8711)">
<stop stop-color="#FFDD55"/>
<stop offset="0.1" stop-color="#FFDD55"/>
<stop offset="0.5" stop-color="#FF543E"/>
<stop offset="1" stop-color="#C837AB"/>
</radialGradient>
<radialGradient id="paint1_radial_327_8493" cx="0" cy="0" r="1" gradientUnits="userSpaceOnUse" gradientTransform="translate(-2.70016 2.88141) rotate(78.681) scale(17.7206 73.045)">
<stop stop-color="#3771C8"/>
<stop offset="0.128" stop-color="#3771C8"/>
<stop offset="1" stop-color="#6600FF" stop-opacity="0"/>
</radialGradient>
<clipPath id="clip0_327_8493">
<rect width="40" height="40" fill="white" transform="translate(4)"/>
</clipPath>
</defs>
</svg>
