<svg width="172" height="107" viewBox="0 0 172 107" fill="none" xmlns="http://www.w3.org/2000/svg">
<path fill-rule="evenodd" clip-rule="evenodd" d="M74 0C71.5147 0 69.5 2.01472 69.5 4.5C69.5 6.98528 71.5147 9 74 9H99.7627L112.375 33.3552L88.6028 46.8729C88.0406 47.1926 87.3272 46.9025 87.1477 46.2811L81.4383 26.5171C81.2344 25.8121 80.366 25.5592 79.8157 26.0448L60.4532 43.1294C60.25 42.5196 59.8763 41.9589 59.3255 41.5175C54.1773 37.3917 47.9849 34.7221 41.3977 33.8301C33.4812 32.7581 25.4317 34.313 18.4839 38.2562C11.5362 42.1994 6.07401 48.3131 2.93509 55.6594C-0.203583 63.0058 -0.845428 71.179 1.10818 78.9252C3.06155 86.6715 7.50247 93.5629 13.7495 98.5423C19.9966 103.522 27.7049 106.314 35.6917 106.491C43.6785 106.668 51.5027 104.22 57.9641 99.5219C63.3406 95.6129 67.5264 90.3261 70.1023 84.2524C70.9668 82.2145 69.7432 79.9685 67.6228 79.3327C65.5025 78.6969 63.2935 79.917 62.3665 81.9272C60.3367 86.3291 57.2066 90.1618 53.2503 93.0383C48.2078 96.7043 42.1018 98.6149 35.8692 98.4768C29.6365 98.3387 23.6211 96.1596 18.7461 92.2738C13.8709 88.388 10.4053 83.0101 8.88089 76.9651C7.35648 70.9201 7.85745 64.5419 10.3067 58.8089C12.7561 53.076 17.0188 48.305 22.4407 45.2278C27.8626 42.1506 34.1443 40.9372 40.3221 41.7738C45.1695 42.4302 49.7427 44.3201 53.6172 47.2331C54.0374 47.549 54.5 47.7914 54.9825 47.9565L30.3919 69.6542C30.1316 69.8838 29.888 70.1412 29.7696 70.4673C29.1824 72.0831 29.7227 75.2349 32.4912 75.5181C33.1509 75.5856 33.7827 75.2986 34.3228 74.9139L72.3985 47.7847C72.9461 47.3946 73.7149 47.6451 73.9275 48.2829L80.5594 68.1784C80.7757 68.8275 81.5655 69.0724 82.1111 68.6598L141.374 23.8511C142.103 23.3004 142.68 22.5053 142.574 21.5983C142.376 19.9152 141.211 18.1521 139.039 18.401C138.678 18.4423 138.34 18.591 138.024 18.7706L120.205 28.903L107.615 4.59123C106.154 1.77081 103.243 0 100.067 0H74ZM127.994 44.4263C126.848 42.2207 124.132 41.361 121.926 42.5063C119.721 43.6515 118.861 46.368 120.006 48.5737L133.506 74.5737C134.652 76.7793 137.368 77.639 139.574 76.4937C141.779 75.3485 142.639 72.632 141.494 70.4263L127.994 44.4263ZM138.485 37.6455C138.689 35.4413 140.648 33.7971 142.816 34.2408C147.989 35.299 152.886 37.4702 157.161 40.622C162.514 44.5692 166.688 49.9043 169.229 56.0508C171.771 62.1973 172.585 68.9216 171.584 75.4971C170.582 82.0726 167.803 88.2495 163.545 93.3602C159.289 98.4709 153.716 102.321 147.43 104.495C141.144 106.669 134.383 107.084 127.878 105.695C121.374 104.307 115.372 101.167 110.522 96.6149C106.649 92.9804 103.629 88.5562 101.653 83.6607C100.824 81.6079 102.087 79.3838 104.218 78.7852C106.349 78.1867 108.537 79.4454 109.428 81.4716C110.968 84.9698 113.201 88.1355 116.008 90.7697C119.793 94.3217 124.476 96.7721 129.552 97.8559C134.628 98.9398 139.904 98.6159 144.81 96.9194C149.715 95.2229 154.064 92.2181 157.386 88.2298C160.708 84.2415 162.877 79.4212 163.659 74.2898C164.441 69.1584 163.805 63.9109 161.822 59.1143C159.838 54.3177 156.581 50.1544 152.404 47.074C149.305 44.7897 145.788 43.1655 142.069 42.284C139.915 41.7735 138.282 39.8498 138.485 37.6455Z" fill="#1AC232"/>
</svg>
