<svg width="24" height="24" viewBox="0 0 24 24" fill="none" xmlns="http://www.w3.org/2000/svg">
<circle cx="12" cy="12" r="11.5" fill="white" stroke="#FCCE48"/>
<g clip-path="url(#clip0_21_1120)">
<path d="M15.9219 7.40625C15.644 7.40625 15.4188 7.0145 15.4188 6.53125C15.4188 6.048 15.644 5.65625 15.9219 5.65625C16.1997 5.65625 16.425 6.048 16.425 6.53125C16.425 7.0145 16.1997 7.40625 15.9219 7.40625Z" fill="#3E4347"/>
<path d="M17.3656 6.09375H16.3375V6.96875H17.3656V6.09375Z" fill="#3E4347"/>
<path d="M17.3656 6.96875C17.2569 6.96875 17.1688 6.77287 17.1688 6.53125C17.1688 6.28963 17.2569 6.09375 17.3656 6.09375C17.4744 6.09375 17.5625 6.28963 17.5625 6.53125C17.5625 6.77287 17.4744 6.96875 17.3656 6.96875Z" fill="#3E4347"/>
<path d="M15.9219 6.96875C15.8131 6.96875 15.725 6.77287 15.725 6.53125C15.725 6.28963 15.8131 6.09375 15.9219 6.09375C16.0306 6.09375 16.1187 6.28963 16.1187 6.53125C16.1187 6.77287 16.0306 6.96875 15.9219 6.96875Z" fill="#83BF4F"/>
<path d="M5.88125 18.3438C5.08389 18.3438 4.4375 17.6582 4.4375 16.8125C4.4375 15.9668 5.08389 15.2812 5.88125 15.2812C6.67861 15.2812 7.325 15.9668 7.325 16.8125C7.325 17.6582 6.67861 18.3438 5.88125 18.3438Z" fill="#3E4347"/>
<path d="M15.9219 6.09375H13.0562V6.96875H15.9219V6.09375Z" fill="#83BF4F"/>
<path d="M13.2531 7.40625C12.9753 7.40625 12.75 7.0145 12.75 6.53125C12.75 6.048 12.9753 5.65625 13.2531 5.65625C13.531 5.65625 13.7563 6.048 13.7563 6.53125C13.7563 7.0145 13.531 7.40625 13.2531 7.40625Z" fill="#3E4347"/>
<path d="M13.0563 6.09375H11.6125V6.96875H13.0563V6.09375Z" fill="#3E4347"/>
<path d="M11.6125 6.96875C11.4434 6.96875 11.3062 6.77287 11.3062 6.53125C11.3062 6.28963 11.4434 6.09375 11.6125 6.09375C11.7816 6.09375 11.9187 6.28963 11.9187 6.53125C11.9187 6.77287 11.7816 6.96875 11.6125 6.96875Z" fill="#94989B"/>
<path d="M11.8094 16.375C11.8094 16.375 12.1812 14.625 13.8656 14.625C14.4562 14.625 14.8281 14.2313 15.0031 13.9469C15.0906 13.7938 15.375 13.3125 15.375 13.3125L16.075 13.75L14.1062 17.25H5.88125V16.375H11.8094Z" fill="#83BF4F"/>
<path d="M5.15937 16.8125C5.15937 17.2281 5.48749 17.5781 5.88124 17.5781C6.27499 17.5781 6.60312 17.2281 6.60312 16.8125C6.60312 16.3969 6.27499 16.0469 5.88124 16.0469C5.48749 16.0469 5.15937 16.3969 5.15937 16.8125Z" fill="#D0D0D0"/>
<path d="M5.88124 15.1719C5.20312 15.1719 4.65624 15.0625 4.65624 14.9313C5.00624 14.6688 5.42187 14.5156 5.88124 14.5156C7.06249 14.5156 8.02499 15.5437 8.02499 16.8125H7.41249C7.41249 15.9156 6.71249 15.1719 5.88124 15.1719Z" fill="#83BF4F"/>
<path d="M5.88125 17.3156C5.61547 17.3156 5.4 17.0904 5.4 16.8125C5.4 16.5346 5.61547 16.3094 5.88125 16.3094C6.14704 16.3094 6.3625 16.5346 6.3625 16.8125C6.3625 17.0904 6.14704 17.3156 5.88125 17.3156Z" fill="white"/>
<path opacity="0.5" d="M15.0031 13.9469C15.0906 13.7938 15.375 13.3125 15.375 13.3125L15.6812 13.5094L15.8125 14.275L15.1781 15.4125L14.9594 14.0781C14.9594 14.0125 14.9812 13.9906 15.0031 13.9469Z" fill="#3E4347"/>
<path d="M5.35626 14.8C5.35626 14.8657 6.10001 14.6469 6.82188 15.1063C7.54376 15.5438 7.76251 16.3969 7.80626 16.375C7.87188 16.3969 7.71876 15.4125 6.93126 14.9094C6.12188 14.3844 5.31251 14.7344 5.35626 14.8Z" fill="#C7E755"/>
<path opacity="0.5" d="M16.5563 15.325C16.4906 15.3031 16.425 15.2812 16.3594 15.2812L16.3375 15.1062C16.2938 14.8437 16.25 14.7344 16.075 14.7125C15.9 14.6906 16.4031 14.6906 16.5563 15.325Z" fill="#3E4347"/>
<path d="M15.9219 15.2812H16.3375C16.9063 15.2812 17.3656 15.9594 17.3656 16.8125C17.3656 17.6656 16.9063 18.3438 16.3375 18.3438H15.9219C15.3531 18.3438 14.8938 17.6656 14.8938 16.8125C14.8938 15.9594 15.3531 15.2812 15.9219 15.2812Z" fill="#3E4347"/>
<path d="M15.4188 16.8125C15.4188 17.2281 15.6375 17.5781 15.9219 17.5781C16.2063 17.5781 16.425 17.2281 16.425 16.8125C16.425 16.3969 16.2063 16.0469 15.9219 16.0469C15.6375 16.0469 15.4188 16.3969 15.4188 16.8125Z" fill="#D0D0D0"/>
<path d="M15.9219 17.3156C15.7286 17.3156 15.5719 17.0904 15.5719 16.8125C15.5719 16.5346 15.7286 16.3094 15.9219 16.3094C16.1152 16.3094 16.2719 16.5346 16.2719 16.8125C16.2719 17.0904 16.1152 17.3156 15.9219 17.3156Z" fill="white"/>
<path opacity="0.25" d="M16.9062 16.8125C16.9062 17.6656 16.3156 18.1906 16.2937 18.125C16.25 18.0813 16.7312 17.5781 16.7094 16.8125C16.7312 16.0469 16.25 15.5438 16.2937 15.5C16.3156 15.4344 16.9062 15.9594 16.9062 16.8125Z" fill="white"/>
<path d="M15.5062 14.2094L14.1937 6.09375H15.025L16.2937 14.1C16.6 14.2312 16.775 14.5594 16.8406 14.9969L16.95 15.6094C16.7969 15.4125 16.5781 15.2812 16.3594 15.2812L16.3375 15.1062C16.2937 14.8 16.2281 14.6687 15.9437 14.7344C15.8344 14.7563 15.8344 14.9969 15.9 15.3031L16.1406 16.725C16.1625 16.8781 16.075 17.0312 15.9219 17.0531C15.7687 17.075 15.6375 16.9656 15.6156 16.8125L15.375 15.3906C15.2437 14.9094 15.2219 14.4281 15.5062 14.2094Z" fill="#83BF4F"/>
<path d="M15.8344 14.5375C15.6594 14.4719 15.4844 14.7125 15.6375 15.5219C15.7906 16.3313 15.8344 16.1125 15.7031 15.1281C15.6156 14.5375 15.9437 14.5813 15.8344 14.5375ZM15.4187 10.6C15.7469 12.5469 16.0312 14.1219 16.0969 14.1219C16.1406 14.1219 15.9219 12.525 15.5937 10.5781C15.2656 8.63127 14.9812 7.05627 14.9156 7.05627C14.8719 7.05627 15.1125 8.65315 15.4187 10.6Z" fill="#C7E755"/>
<path d="M14.8938 6.46564C14.3259 6.46564 13.8656 6.41667 13.8656 6.35626C13.8656 6.29586 14.3259 6.24689 14.8938 6.24689C15.4616 6.24689 15.9219 6.29586 15.9219 6.35626C15.9219 6.41667 15.4616 6.46564 14.8938 6.46564Z" fill="#C7E755"/>
</g>
<defs>
<clipPath id="clip0_21_1120">
<rect width="14" height="14" fill="white" transform="matrix(-1 0 0 1 18 5)"/>
</clipPath>
</defs>
</svg>
