<svg width="24" height="24" viewBox="0 0 24 24" fill="none" xmlns="http://www.w3.org/2000/svg">
<path d="M21.6473 4.29151C22.1138 3.07876 20.922 1.88701 19.7093 2.35351L3.213 8.69851C1.854 9.22051 1.962 11.178 3.3705 11.5485L10.137 13.3298C10.2654 13.3635 10.3826 13.4307 10.4766 13.5245C10.5705 13.6183 10.6379 13.7354 10.6718 13.8638L12.4523 20.631C12.8228 22.0388 14.7803 22.146 15.3023 20.7878L21.6473 4.29151ZM20.2478 3.75376L13.9028 20.2493L12.1223 13.482C12.0209 13.0967 11.819 12.7452 11.5373 12.4635C11.2556 12.1817 10.9041 11.9799 10.5188 11.8785L3.7515 10.098L20.2478 3.75376Z" fill="black"/>
</svg>
