<svg width="18" height="18" viewBox="0 0 18 18" fill="none" xmlns="http://www.w3.org/2000/svg">
<path d="M6.75 0.849976H2.25C1.85218 0.849976 1.47064 1.00801 1.18934 1.28932C0.908035 1.57062 0.75 1.95215 0.75 2.34998V6.84998C0.75 7.2478 0.908035 7.62933 1.18934 7.91064C1.47064 8.19194 1.85218 8.34998 2.25 8.34998H6.75C7.14782 8.34998 7.52936 8.19194 7.81066 7.91064C8.09196 7.62933 8.25 7.2478 8.25 6.84998V2.34998C8.25 1.95215 8.09196 1.57062 7.81066 1.28932C7.52936 1.00801 7.14782 0.849976 6.75 0.849976ZM6.75 6.84998H2.25V2.34998H6.75V6.84998ZM6.75 9.84998H2.25C1.85218 9.84998 1.47064 10.008 1.18934 10.2893C0.908035 10.5706 0.75 10.9522 0.75 11.35V15.85C0.75 16.2478 0.908035 16.6293 1.18934 16.9106C1.47064 17.1919 1.85218 17.35 2.25 17.35H6.75C7.14782 17.35 7.52936 17.1919 7.81066 16.9106C8.09196 16.6293 8.25 16.2478 8.25 15.85V11.35C8.25 10.9522 8.09196 10.5706 7.81066 10.2893C7.52936 10.008 7.14782 9.84998 6.75 9.84998ZM6.75 15.85H2.25V11.35H6.75V15.85ZM15.75 0.849976H11.25C10.8522 0.849976 10.4706 1.00801 10.1893 1.28932C9.90804 1.57062 9.75 1.95215 9.75 2.34998V6.84998C9.75 7.2478 9.90804 7.62933 10.1893 7.91064C10.4706 8.19194 10.8522 8.34998 11.25 8.34998H15.75C16.1478 8.34998 16.5294 8.19194 16.8107 7.91064C17.092 7.62933 17.25 7.2478 17.25 6.84998V2.34998C17.25 1.95215 17.092 1.57062 16.8107 1.28932C16.5294 1.00801 16.1478 0.849976 15.75 0.849976ZM15.75 6.84998H11.25V2.34998H15.75V6.84998ZM9.75 13.6V10.6C9.75 10.4011 9.82902 10.2103 9.96967 10.0696C10.1103 9.92899 10.3011 9.84998 10.5 9.84998C10.6989 9.84998 10.8897 9.92899 11.0303 10.0696C11.171 10.2103 11.25 10.4011 11.25 10.6V13.6C11.25 13.7989 11.171 13.9897 11.0303 14.1303C10.8897 14.271 10.6989 14.35 10.5 14.35C10.3011 14.35 10.1103 14.271 9.96967 14.1303C9.82902 13.9897 9.75 13.7989 9.75 13.6ZM17.25 12.1C17.25 12.2989 17.171 12.4897 17.0303 12.6303C16.8897 12.771 16.6989 12.85 16.5 12.85H14.25V16.6C14.25 16.7989 14.171 16.9897 14.0303 17.1303C13.8897 17.271 13.6989 17.35 13.5 17.35H10.5C10.3011 17.35 10.1103 17.271 9.96967 17.1303C9.82902 16.9897 9.75 16.7989 9.75 16.6C9.75 16.4011 9.82902 16.2103 9.96967 16.0696C10.1103 15.929 10.3011 15.85 10.5 15.85H12.75V10.6C12.75 10.4011 12.829 10.2103 12.9697 10.0696C13.1103 9.92899 13.3011 9.84998 13.5 9.84998C13.6989 9.84998 13.8897 9.92899 14.0303 10.0696C14.171 10.2103 14.25 10.4011 14.25 10.6V11.35H16.5C16.6989 11.35 16.8897 11.429 17.0303 11.5696C17.171 11.7103 17.25 11.9011 17.25 12.1ZM17.25 15.1V16.6C17.25 16.7989 17.171 16.9897 17.0303 17.1303C16.8897 17.271 16.6989 17.35 16.5 17.35C16.3011 17.35 16.1103 17.271 15.9697 17.1303C15.829 16.9897 15.75 16.7989 15.75 16.6V15.1C15.75 14.9011 15.829 14.7103 15.9697 14.5696C16.1103 14.429 16.3011 14.35 16.5 14.35C16.6989 14.35 16.8897 14.429 17.0303 14.5696C17.171 14.7103 17.25 14.9011 17.25 15.1Z" fill="#1AC232"/>
</svg>
