<svg width="24" height="24" viewBox="0 0 24 24" fill="none" xmlns="http://www.w3.org/2000/svg">
<path d="M20.5 11.5C20.5 16.4706 16.4706 20.5 11.5 20.5C6.52944 20.5 2.5 16.4706 2.5 11.5C2.5 6.52944 6.52944 2.5 11.5 2.5C16.4706 2.5 20.5 6.52944 20.5 11.5Z" fill="#DCC38B" stroke="black"/>
<path d="M21.3001 21.5C21.2456 21.5 21.195 21.4778 21.1636 21.4464L19.3036 19.5864C19.2333 19.5161 19.2235 19.3903 19.3067 19.3005C19.3779 19.2327 19.5021 19.2246 19.5906 19.3076L21.4465 21.1635C21.5152 21.2322 21.5261 21.3537 21.4493 21.4429C21.4021 21.4823 21.3476 21.5 21.3001 21.5Z" fill="#DCC38B" stroke="black"/>
</svg>
