<svg width="16" height="10" viewBox="0 0 16 10" fill="none" xmlns="http://www.w3.org/2000/svg">
<path d="M3.05261 7.10943C2.93371 7.10943 2.82202 7.04902 2.75686 6.9475C2.68521 6.83581 2.68275 6.6932 2.75054 6.57887L5.21666 2.42095C5.27093 2.32944 5.36384 2.26727 5.46921 2.25235L10.1335 1.58708C10.2603 1.56934 10.3855 1.62062 10.4626 1.72213C10.5397 1.82347 10.5558 1.9587 10.5049 2.07532L8.63801 6.35091C8.58743 6.46682 8.47837 6.54655 8.35245 6.55955L3.08914 7.10732C3.07685 7.10873 3.06473 7.10943 3.05261 7.10943ZM5.73493 2.92394L3.71103 6.33633L8.07601 5.88216L9.60905 2.37142L5.73493 2.92394Z" fill="white"/>
<path d="M3.05262 9.72291C1.4179 9.72291 0.0878906 8.3929 0.0878906 6.75818C0.0878906 5.12347 1.4179 3.79346 3.05262 3.79346C4.68733 3.79346 6.01734 5.12347 6.01734 6.75818C6.01752 8.3929 4.68751 9.72291 3.05262 9.72291ZM3.05262 4.49596C1.80515 4.49596 0.790391 5.51072 0.790391 6.75818C0.790391 8.00582 1.80515 9.02058 3.05262 9.02058C4.30008 9.02058 5.31484 8.00582 5.31484 6.75818C5.31502 5.51072 4.30008 4.49596 3.05262 4.49596Z" fill="white"/>
<path d="M12.9294 9.72284C11.2945 9.72284 9.96454 8.39283 9.96454 6.75794C9.96454 5.12322 11.2945 3.79321 12.9294 3.79321C14.5643 3.79321 15.8942 5.12322 15.8942 6.75811C15.8942 8.39283 14.5643 9.72284 12.9294 9.72284ZM12.9294 4.49589C11.6818 4.49589 10.667 5.51065 10.667 6.75811C10.667 8.00575 11.6818 9.02052 12.9294 9.02052C14.1769 9.02034 15.1917 8.00558 15.1917 6.75811C15.1917 5.51065 14.1769 4.49589 12.9294 4.49589Z" fill="white"/>
<path d="M12.9298 7.10941C12.8067 7.10941 12.6871 7.0446 12.6228 6.92939L9.19091 0.78164C9.13014 0.672752 9.13155 0.53998 9.1946 0.432497C9.25765 0.325191 9.37303 0.259155 9.49755 0.259155H10.9421C11.136 0.259155 11.2933 0.416515 11.2933 0.610405C11.2933 0.804295 11.136 0.961655 10.9421 0.961655H10.0961L13.2363 6.58692C13.3309 6.75623 13.2701 6.97031 13.1008 7.0648C13.0464 7.09501 12.9877 7.10941 12.9298 7.10941Z" fill="white"/>
<path d="M8.31627 6.56142C8.21107 6.56142 8.10693 6.51418 8.03773 6.42443L4.42003 1.72559C4.30166 1.57192 4.33046 1.35133 4.48414 1.23296C4.63798 1.11459 4.85857 1.14339 4.97676 1.29706L8.59446 5.99609C8.71283 6.14976 8.68421 6.37034 8.53036 6.48871C8.46643 6.53771 8.39109 6.56142 8.31627 6.56142Z" fill="white"/>
<path d="M5.82699 1.86266H3.8059C3.61201 1.86266 3.45465 1.7053 3.45465 1.51141C3.45465 1.31752 3.61201 1.16016 3.8059 1.16016H5.82699C6.02088 1.16016 6.17824 1.31752 6.17824 1.51141C6.17824 1.7053 6.02106 1.86266 5.82699 1.86266Z" fill="white"/>
</svg>
