<svg width="176" height="24" viewBox="0 0 176 24" fill="none" xmlns="http://www.w3.org/2000/svg">
<path d="M0.344 11.896C0.28 8.61067 1.41067 5.80533 3.736 3.48C6.08267 1.15467 8.90933 0.0239989 12.216 0.0879993C15.0107 0.0879993 17.304 0.717333 19.096 1.976C20.9093 3.23467 22.136 4.888 22.776 6.936L18.2 8.632C17.1973 5.624 15.2027 4.12 12.216 4.12C10.1893 4.12 8.54667 4.824 7.288 6.232C6.02933 7.61867 5.4 9.50667 5.4 11.896C5.4 14.2 6.02933 16.0453 7.288 17.432C8.568 18.8187 10.168 19.512 12.088 19.512C13.7733 19.512 15.1173 19.1173 16.12 18.328C17.1227 17.5387 17.7093 16.6 17.88 15.512H10.648V11.48H22.648V23H18.264C18.264 21.528 18.7653 20.0027 19.768 18.424H17.784C17.208 19.8747 16.4187 21.0693 15.416 22.008C14.3493 23.0107 12.824 23.512 10.84 23.512C7.96 23.5547 5.47467 22.4987 3.384 20.344C1.31467 18.1893 0.301333 15.3733 0.344 11.896ZM27.1568 23V0.599998H38.2288C40.5968 0.599998 42.4634 1.13333 43.8288 2.2C45.1941 3.26667 45.8768 4.696 45.8768 6.488C45.8768 7.96 45.5141 9.06933 44.7888 9.816C44.1488 10.52 43.3808 11 42.4848 11.256C41.6101 11.512 40.4368 11.672 38.9648 11.736V13.4C41.0554 13.464 42.5594 13.7733 43.4768 14.328C44.3941 14.8827 45.0128 15.9813 45.3328 17.624L46.2608 23H41.0768L40.4048 18.04C40.2128 16.7387 39.7968 15.8213 39.1568 15.288C38.5168 14.7547 37.4928 14.488 36.0848 14.488H32.0208V23H27.1568ZM32.0208 10.552H37.3008C38.3888 10.552 39.2421 10.296 39.8608 9.784C40.5008 9.272 40.8208 8.536 40.8208 7.576C40.8208 6.63733 40.5008 5.912 39.8608 5.4C39.2421 4.888 38.3888 4.632 37.3008 4.632H32.0208V10.552ZM50.3755 23V0.599998H67.3035V4.632H55.2395V9.496H64.3595V13.464H55.2395V18.968H67.3035V23H50.3755ZM71.5005 23V0.599998H88.4285V4.632H76.3645V9.496H85.4845V13.464H76.3645V18.968H88.4285V23H71.5005ZM92.6255 23V0.599998H100.114L110.066 17.24L111.506 16.248C110.631 14.776 110.066 13.6453 109.81 12.856C109.575 12.0453 109.447 10.776 109.426 9.048V0.599998H114.29V23H108.434L96.8175 3.544L95.3455 4.472C96.1348 5.944 96.6895 7.20267 97.0095 8.248C97.3295 9.29333 97.4895 10.648 97.4895 12.312V23H92.6255ZM125.844 11.896C125.78 8.61067 126.911 5.80533 129.236 3.48C131.583 1.15467 134.409 0.0239989 137.716 0.0879993C140.511 0.0879993 142.804 0.717333 144.596 1.976C146.409 3.23467 147.636 4.888 148.276 6.936L143.7 8.632C142.697 5.624 140.703 4.12 137.716 4.12C135.689 4.12 134.047 4.824 132.788 6.232C131.529 7.61867 130.9 9.50667 130.9 11.896C130.9 14.2 131.529 16.0453 132.788 17.432C134.068 18.8187 135.668 19.512 137.588 19.512C139.273 19.512 140.617 19.1173 141.62 18.328C142.623 17.5387 143.209 16.6 143.38 15.512H136.148V11.48H148.148V23H143.764C143.764 21.528 144.265 20.0027 145.268 18.424H143.284C142.708 19.8747 141.919 21.0693 140.916 22.008C139.849 23.0107 138.324 23.512 136.34 23.512C133.46 23.5547 130.975 22.4987 128.884 20.344C126.815 18.1893 125.801 15.3733 125.844 11.896ZM151.313 11.864C151.313 8.45067 152.401 5.63467 154.577 3.416C156.774 1.19733 159.675 0.0879993 163.281 0.0879993C166.886 0.0879993 169.777 1.19733 171.953 3.416C174.15 5.63467 175.249 8.45067 175.249 11.864C175.291 15.256 174.214 18.0507 172.017 20.248C169.819 22.4453 166.907 23.5333 163.281 23.512C159.654 23.5333 156.742 22.4453 154.545 20.248C152.347 18.0507 151.27 15.256 151.313 11.864ZM170.161 11.832C170.161 9.54933 169.542 7.69333 168.305 6.264C167.067 4.83467 165.403 4.12 163.313 4.12C161.179 4.12 159.494 4.83467 158.257 6.264C157.019 7.69333 156.401 9.54933 156.401 11.832C156.401 14.0933 157.019 15.9387 158.257 17.368C159.494 18.776 161.179 19.48 163.313 19.48C165.403 19.48 167.067 18.776 168.305 17.368C169.542 15.9387 170.161 14.0933 170.161 11.832Z" fill="#1AC232"/>
</svg>
