<svg width="38" height="38" viewBox="0 0 38 38" fill="none" xmlns="http://www.w3.org/2000/svg">
<path d="M22.1674 3.31465L25.3937 9.8206C25.8337 10.7263 27.0069 11.5949 27.9968 11.7613L33.8445 12.7409C37.584 13.3693 38.4639 16.1047 35.7692 18.8032L31.2231 23.387C30.4532 24.1632 30.0315 25.6603 30.2698 26.7324L31.5714 32.4066C32.5979 36.8979 30.2332 38.6353 26.292 36.288L20.8109 33.0165C19.821 32.4251 18.1895 32.4251 17.1813 33.0165L11.7002 36.288C7.77734 38.6353 5.39427 36.8794 6.42082 32.4066L7.72234 26.7324C7.96065 25.6603 7.53903 24.1632 6.76912 23.387L2.22295 18.8032C-0.453419 16.1047 0.408153 13.3693 4.14774 12.7409L9.99543 11.7613C10.967 11.5949 12.1402 10.7263 12.5801 9.8206L15.8065 3.31465C17.5663 -0.215561 20.4259 -0.215561 22.1674 3.31465Z" fill="#DCC38B"/>
</svg>
