<svg width="24" height="24" viewBox="0 0 24 24" fill="none" xmlns="http://www.w3.org/2000/svg">
<path d="M11.1469 2.35312C10.2563 2.45625 9.42195 2.7 8.59695 3.1125C7.14382 3.825 6.05632 4.95937 5.49382 6.32812C5.32507 6.72187 5.18445 7.24687 5.13757 7.6125L5.10945 7.8375L4.4532 7.86562C3.73132 7.89375 3.4782 7.94062 3.01882 8.175C2.00632 8.68125 1.32195 9.76875 1.0407 11.3156C0.918822 11.9812 0.909447 13.3312 1.02195 13.9781C1.3407 15.8156 2.1657 16.9781 3.45007 17.4094C3.76882 17.5125 3.8532 17.5219 4.59382 17.5219C5.34382 17.5219 5.40945 17.5219 5.60632 17.4281C5.88757 17.2969 6.20632 16.9875 6.3282 16.7062L6.43132 16.4812L6.45007 12.0844C6.46882 7.73437 6.4782 7.6875 6.56257 7.35937C7.05945 5.625 8.41882 4.36875 10.3688 3.8625C12.6188 3.28125 15.1032 3.975 16.4532 5.56875C16.9032 6.09375 17.2032 6.66562 17.4001 7.35L17.5032 7.69687L17.5313 12.0937L17.5501 16.4906L17.6532 16.7062C17.8501 17.1281 18.2907 17.4656 18.7313 17.5312L18.9188 17.5594V18.9375V20.3156H15.4594H12.0001L11.9719 20.1281C11.9344 19.8656 11.7657 19.5281 11.5782 19.3406C11.0532 18.8156 10.1626 18.8156 9.6282 19.3406C9.1032 19.8656 9.1032 20.7563 9.6282 21.2906C9.72195 21.3844 9.90007 21.5063 10.0313 21.5719L10.2751 21.6844H14.7282H19.1813L19.3876 21.5906C19.6219 21.4781 19.9126 21.225 20.0532 21.0094C20.2688 20.6719 20.2876 20.5031 20.2876 18.9375V17.4844L20.5782 17.3906C22.0313 16.9219 22.9313 15.3187 23.0344 13.0406C23.1376 10.9031 22.3876 9.01875 21.1407 8.2875C20.6532 8.00625 20.2688 7.90312 19.5188 7.88437L18.8626 7.85625L18.8063 7.52812C18.6563 6.57187 18.1032 5.44687 17.3907 4.65C16.4344 3.525 14.9063 2.70937 13.3407 2.4375C12.7594 2.33437 11.6719 2.2875 11.1469 2.35312ZM5.07195 12.6937V16.1531H4.6032C4.05945 16.1531 3.73132 16.0687 3.42195 15.8531C2.94382 15.525 2.59695 14.8687 2.40945 13.9594C2.29695 13.4156 2.29695 11.9625 2.40945 11.4187C2.63445 10.2937 3.15007 9.53437 3.8532 9.31875C4.03132 9.2625 4.24695 9.23437 4.59382 9.23437H5.08132V12.6937H5.07195ZM20.1282 9.31875C20.8313 9.53437 21.3376 10.2469 21.5719 11.3531C21.6938 11.9156 21.7032 13.3875 21.5907 13.9594C21.3563 15.1125 20.8501 15.8437 20.1282 16.0687C19.9407 16.125 19.7344 16.1531 19.3969 16.1531H18.9282V12.6937V9.23437H19.3969C19.7344 9.23437 19.9313 9.25312 20.1282 9.31875Z" fill="#1AC232"/>
</svg>
