<svg width="44" height="63" viewBox="0 0 44 63" fill="none" xmlns="http://www.w3.org/2000/svg">
<rect x="2" width="40" height="40" rx="9" fill="#2AABEE"/>
<path d="M11.4929 19.749C17.3241 17.209 21.2116 15.5343 23.1554 14.7253C28.7116 12.415 29.8647 12.0137 30.6178 12.0001C30.7835 11.9975 31.1522 12.0384 31.3929 12.2329C31.5929 12.397 31.6491 12.6189 31.6772 12.7746C31.7022 12.9303 31.7366 13.285 31.7085 13.5618C31.4085 16.7243 30.1054 24.3987 29.4429 27.9409C29.1647 29.4396 28.6116 29.9421 28.0772 29.9912C26.9147 30.0981 26.0335 29.2237 24.9085 28.4865C23.1491 27.3325 22.1554 26.6143 20.446 25.4884C18.471 24.1872 19.7522 23.4718 20.8772 22.3031C21.171 21.9971 26.2897 17.3425 26.3866 16.9203C26.3991 16.8675 26.4116 16.6706 26.2929 16.5668C26.1772 16.4628 26.0054 16.4984 25.8804 16.5265C25.7022 16.5665 22.8929 18.4253 17.4429 22.1025C16.646 22.6506 15.9241 22.9178 15.2741 22.9037C14.5616 22.8884 13.1866 22.5 12.1647 22.1681C10.9147 21.7609 9.91785 21.5456 10.0054 20.854C10.0491 20.494 10.546 20.1256 11.4929 19.749Z" fill="white"/>
<path d="M0.482955 52.5085V51.7273H5.9375V52.5085H3.65057V59H2.76989V52.5085H0.482955ZM8.67898 59.1136C8.15341 59.1136 7.70005 58.9976 7.31889 58.7656C6.9401 58.5312 6.64773 58.2045 6.44176 57.7855C6.23816 57.3641 6.13636 56.8741 6.13636 56.3153C6.13636 55.7566 6.23816 55.2642 6.44176 54.8381C6.64773 54.4096 6.93419 54.0758 7.30114 53.8366C7.67045 53.5952 8.10133 53.4744 8.59375 53.4744C8.87784 53.4744 9.15838 53.5218 9.43537 53.6165C9.71236 53.7112 9.96449 53.8651 10.1918 54.0781C10.419 54.2888 10.6001 54.5682 10.7351 54.9162C10.87 55.2642 10.9375 55.6927 10.9375 56.2017V56.5568H6.73295V55.8324H10.0852C10.0852 55.5246 10.0237 55.25 9.90057 55.0085C9.77983 54.767 9.60701 54.5765 9.3821 54.4368C9.15956 54.2971 8.89678 54.2273 8.59375 54.2273C8.25994 54.2273 7.97112 54.3101 7.72727 54.4759C7.4858 54.6392 7.29995 54.8523 7.16974 55.1151C7.03954 55.3778 6.97443 55.6596 6.97443 55.9602V56.4432C6.97443 56.8551 7.04545 57.2043 7.1875 57.4908C7.33191 57.7749 7.53196 57.9915 7.78764 58.1406C8.04332 58.2874 8.34044 58.3608 8.67898 58.3608C8.89915 58.3608 9.09801 58.33 9.27557 58.2685C9.45549 58.2045 9.61056 58.1098 9.74077 57.9844C9.87098 57.8565 9.97159 57.6979 10.0426 57.5085L10.8523 57.7358C10.767 58.0104 10.6238 58.2519 10.4226 58.4602C10.2214 58.6662 9.97277 58.8272 9.67685 58.9432C9.38092 59.0568 9.0483 59.1136 8.67898 59.1136ZM13.0504 51.7273V59H12.2124V51.7273H13.0504ZM16.8723 59.1136C16.3468 59.1136 15.8934 58.9976 15.5123 58.7656C15.1335 58.5312 14.8411 58.2045 14.6351 57.7855C14.4315 57.3641 14.3297 56.8741 14.3297 56.3153C14.3297 55.7566 14.4315 55.2642 14.6351 54.8381C14.8411 54.4096 15.1275 54.0758 15.4945 53.8366C15.8638 53.5952 16.2947 53.4744 16.7871 53.4744C17.0712 53.4744 17.3517 53.5218 17.6287 53.6165C17.9057 53.7112 18.1578 53.8651 18.3851 54.0781C18.6124 54.2888 18.7935 54.5682 18.9284 54.9162C19.0634 55.2642 19.1309 55.6927 19.1309 56.2017V56.5568H14.9263V55.8324H18.2786C18.2786 55.5246 18.217 55.25 18.0939 55.0085C17.9732 54.767 17.8004 54.5765 17.5755 54.4368C17.3529 54.2971 17.0901 54.2273 16.7871 54.2273C16.4533 54.2273 16.1645 54.3101 15.9206 54.4759C15.6792 54.6392 15.4933 54.8523 15.3631 55.1151C15.2329 55.3778 15.1678 55.6596 15.1678 55.9602V56.4432C15.1678 56.8551 15.2388 57.2043 15.3809 57.4908C15.5253 57.7749 15.7253 57.9915 15.981 58.1406C16.2367 58.2874 16.5338 58.3608 16.8723 58.3608C17.0925 58.3608 17.2914 58.33 17.4689 58.2685C17.6489 58.2045 17.8039 58.1098 17.9341 57.9844C18.0643 57.8565 18.165 57.6979 18.236 57.5085L19.0456 57.7358C18.9604 58.0104 18.8172 58.2519 18.6159 58.4602C18.4147 58.6662 18.1661 58.8272 17.8702 58.9432C17.5743 59.0568 17.2417 59.1136 16.8723 59.1136ZM22.6074 61.1591C22.2026 61.1591 21.8546 61.107 21.5634 61.0028C21.2722 60.901 21.0295 60.7661 20.8354 60.598C20.6436 60.4323 20.4909 60.2547 20.3773 60.0653L21.0449 59.5966C21.1207 59.696 21.2166 59.8097 21.3326 59.9375C21.4486 60.0677 21.6072 60.1802 21.8084 60.2749C22.012 60.3719 22.2783 60.4205 22.6074 60.4205C23.0478 60.4205 23.4112 60.3139 23.6976 60.1009C23.9841 59.8878 24.1273 59.554 24.1273 59.0994V57.9915H24.0563C23.9947 58.0909 23.9071 58.214 23.7935 58.3608C23.6822 58.5052 23.5212 58.6342 23.3105 58.7479C23.1022 58.8591 22.8205 58.9148 22.4654 58.9148C22.025 58.9148 21.6297 58.8106 21.2793 58.6023C20.9313 58.3939 20.6555 58.0909 20.4519 57.6932C20.2507 57.2955 20.15 56.8125 20.15 56.2443C20.15 55.6856 20.2483 55.1991 20.4448 54.7848C20.6413 54.3681 20.9147 54.0462 21.2651 53.8189C21.6155 53.5893 22.0203 53.4744 22.4796 53.4744C22.8347 53.4744 23.1164 53.5336 23.3248 53.652C23.5355 53.768 23.6964 53.9006 23.8077 54.0497C23.9213 54.1965 24.0089 54.3172 24.0705 54.4119H24.1557V53.5455H24.9654V59.1562C24.9654 59.625 24.8588 60.0062 24.6458 60.2997C24.4351 60.5956 24.151 60.8123 23.7935 60.9496C23.4384 61.0893 23.043 61.1591 22.6074 61.1591ZM22.579 58.1619C22.9152 58.1619 23.1993 58.085 23.4313 57.9311C23.6633 57.7772 23.8397 57.5559 23.9604 57.267C24.0811 56.9782 24.1415 56.6326 24.1415 56.2301C24.1415 55.8371 24.0823 55.4903 23.964 55.1896C23.8456 54.889 23.6704 54.6534 23.4384 54.483C23.2064 54.3125 22.9199 54.2273 22.579 54.2273C22.2239 54.2273 21.928 54.3172 21.6912 54.4972C21.4569 54.6771 21.2805 54.9186 21.1621 55.2216C21.0461 55.5246 20.9881 55.8608 20.9881 56.2301C20.9881 56.6089 21.0473 56.9439 21.1657 57.2351C21.2864 57.5239 21.464 57.7512 21.6983 57.9169C21.9351 58.0803 22.2286 58.1619 22.579 58.1619ZM26.4995 59V53.5455H27.3091V54.3693H27.3659C27.4654 54.0994 27.6453 53.8804 27.9057 53.7124C28.1661 53.5443 28.4597 53.4602 28.7864 53.4602C28.848 53.4602 28.9249 53.4614 29.0172 53.4638C29.1096 53.4661 29.1794 53.4697 29.2267 53.4744V54.3267C29.1983 54.3196 29.1332 54.3089 29.0314 54.2947C28.932 54.2782 28.8266 54.2699 28.7154 54.2699C28.4502 54.2699 28.2135 54.3255 28.0051 54.4368C27.7992 54.5457 27.6358 54.6972 27.5151 54.8913C27.3967 55.0831 27.3375 55.3021 27.3375 55.5483V59H26.4995ZM31.8253 59.1278C31.4796 59.1278 31.166 59.0627 30.8842 58.9325C30.6025 58.8 30.3788 58.6094 30.2131 58.3608C30.0473 58.1098 29.9645 57.8068 29.9645 57.4517C29.9645 57.1392 30.026 56.8859 30.1491 56.6918C30.2723 56.4953 30.4368 56.3414 30.6428 56.2301C30.8487 56.1188 31.076 56.036 31.3246 55.9815C31.5755 55.9247 31.8277 55.8797 32.081 55.8466C32.4124 55.804 32.6811 55.772 32.8871 55.7507C33.0954 55.727 33.2469 55.688 33.3416 55.6335C33.4387 55.5791 33.4872 55.4844 33.4872 55.3494V55.321C33.4872 54.9706 33.3913 54.6984 33.1996 54.5043C33.0102 54.3101 32.7225 54.2131 32.3366 54.2131C31.9366 54.2131 31.6229 54.3007 31.3956 54.4759C31.1683 54.651 31.0085 54.8381 30.9162 55.0369L30.1207 54.7528C30.2628 54.4214 30.4522 54.1634 30.6889 53.9787C30.928 53.7917 31.1884 53.6615 31.4702 53.5881C31.7543 53.5123 32.0336 53.4744 32.3082 53.4744C32.4834 53.4744 32.6847 53.4957 32.9119 53.5384C33.1416 53.5786 33.3629 53.6626 33.576 53.7905C33.7914 53.9183 33.9702 54.1113 34.1122 54.3693C34.2543 54.6274 34.3253 54.973 34.3253 55.4062V59H33.4872V58.2614H33.4446C33.3878 58.3797 33.2931 58.5064 33.1605 58.6413C33.0279 58.7763 32.8516 58.8911 32.6314 58.9858C32.4112 59.0805 32.1425 59.1278 31.8253 59.1278ZM31.9531 58.375C32.2846 58.375 32.5639 58.3099 32.7912 58.1797C33.0208 58.0495 33.1937 57.8814 33.3097 57.6754C33.428 57.4695 33.4872 57.2528 33.4872 57.0256V56.2585C33.4517 56.3011 33.3736 56.3402 33.2528 56.3757C33.1345 56.4089 32.9972 56.4384 32.8409 56.4645C32.687 56.4882 32.5367 56.5095 32.3899 56.5284C32.2455 56.545 32.1283 56.5592 32.0384 56.571C31.8205 56.5994 31.617 56.6456 31.4276 56.7095C31.2405 56.7711 31.089 56.8646 30.973 56.9901C30.8594 57.1132 30.8026 57.2812 30.8026 57.4943C30.8026 57.7855 30.9103 58.0057 31.1257 58.1548C31.3435 58.3016 31.6193 58.375 31.9531 58.375ZM35.8549 59V53.5455H36.6646V54.3977H36.7356C36.8493 54.1065 37.0327 53.8804 37.286 53.7195C37.5394 53.5561 37.8436 53.4744 38.1987 53.4744C38.5585 53.4744 38.858 53.5561 39.0971 53.7195C39.3386 53.8804 39.5268 54.1065 39.6618 54.3977H39.7186C39.8583 54.116 40.0678 53.8923 40.3471 53.7266C40.6265 53.5585 40.9615 53.4744 41.3521 53.4744C41.8398 53.4744 42.2387 53.6271 42.5488 53.9325C42.859 54.2356 43.014 54.7079 43.014 55.3494V59H42.176V55.3494C42.176 54.947 42.0659 54.6593 41.8457 54.4865C41.6255 54.3137 41.3663 54.2273 41.068 54.2273C40.6845 54.2273 40.3874 54.3433 40.1767 54.5753C39.966 54.8049 39.8606 55.0961 39.8606 55.4489V59H39.0083V55.2642C39.0083 54.9541 38.9077 54.7043 38.7065 54.5149C38.5053 54.3232 38.246 54.2273 37.9288 54.2273C37.711 54.2273 37.5074 54.2853 37.318 54.4013C37.131 54.5173 36.9795 54.6783 36.8635 54.8842C36.7498 55.0878 36.693 55.3234 36.693 55.5909V59H35.8549Z" fill="#242424"/>
</svg>
