<svg width="22" height="22" viewBox="0 0 22 22" fill="none" xmlns="http://www.w3.org/2000/svg">
<path d="M11.7485 10.25C11.7485 10.0511 11.6695 9.86032 11.5288 9.71967C11.3882 9.57902 11.1974 9.5 10.9985 9.5C10.7996 9.5 10.6088 9.57902 10.4682 9.71967C10.3275 9.86032 10.2485 10.0511 10.2485 10.25V14.75C10.2485 14.9489 10.3275 15.1397 10.4682 15.2803C10.6088 15.421 10.7996 15.5 10.9985 15.5C11.1974 15.5 11.3882 15.421 11.5288 15.2803C11.6695 15.1397 11.7485 14.9489 11.7485 14.75V10.25ZM12.1235 7.25C12.1235 7.54817 12.0051 7.83413 11.7942 8.04496C11.5834 8.2558 11.2974 8.37425 10.9992 8.37425C10.7011 8.37425 10.4151 8.2558 10.2043 8.04496C9.99345 7.83413 9.875 7.54817 9.875 7.25C9.875 6.95203 9.99337 6.66626 10.2041 6.45557C10.4148 6.24487 10.7005 6.1265 10.9985 6.1265C11.2965 6.1265 11.5822 6.24487 11.7929 6.45557C12.0036 6.66626 12.1235 6.95203 12.1235 7.25ZM11 0.5C8.21523 0.5 5.54451 1.60625 3.57538 3.57538C1.60625 5.54451 0.5 8.21523 0.5 11C0.5 13.7848 1.60625 16.4555 3.57538 18.4246C5.54451 20.3938 8.21523 21.5 11 21.5C13.7848 21.5 16.4555 20.3938 18.4246 18.4246C20.3938 16.4555 21.5 13.7848 21.5 11C21.5 8.21523 20.3938 5.54451 18.4246 3.57538C16.4555 1.60625 13.7848 0.5 11 0.5ZM2 11C2 9.8181 2.23279 8.64778 2.68508 7.55585C3.13738 6.46392 3.80031 5.47177 4.63604 4.63604C5.47177 3.80031 6.46392 3.13738 7.55585 2.68508C8.64778 2.23279 9.8181 2 11 2C12.1819 2 13.3522 2.23279 14.4442 2.68508C15.5361 3.13738 16.5282 3.80031 17.364 4.63604C18.1997 5.47177 18.8626 6.46392 19.3149 7.55585C19.7672 8.64778 20 9.8181 20 11C20 13.3869 19.0518 15.6761 17.364 17.364C15.6761 19.0518 13.3869 20 11 20C8.61305 20 6.32387 19.0518 4.63604 17.364C2.94821 15.6761 2 13.3869 2 11Z" fill="#1AC232"/>
</svg>
