<svg width="24" height="24" viewBox="0 0 24 24" fill="none" xmlns="http://www.w3.org/2000/svg">
<path d="M14.6124 1.60198C14.4203 1.44621 14.1981 1.33171 13.9598 1.26561C13.7215 1.19951 13.4721 1.18323 13.2272 1.2178C12.9823 1.25237 12.7471 1.33704 12.5364 1.46652C12.3257 1.596 12.1439 1.76752 12.0024 1.97038L8.35201 7.19878H9.81601L12.984 2.65678C13.0312 2.58901 13.0919 2.53171 13.1622 2.48848C13.2326 2.44524 13.3111 2.41699 13.3929 2.4055C13.4747 2.39401 13.558 2.39953 13.6375 2.4217C13.717 2.44388 13.7912 2.48224 13.8552 2.53438L14.8248 3.32158L12.144 7.19878H13.6032L15.7584 4.07878L17.7792 5.71918C17.897 5.8149 17.9741 5.95169 17.995 6.10198C18.0159 6.25228 17.9791 6.40493 17.892 6.52918L17.424 7.19878H18.888C19.1424 6.82576 19.2474 6.37075 19.182 5.92397C19.1167 5.47719 18.8858 5.0713 18.5352 4.78678L14.6124 1.60198ZM5.40001 5.99998C4.92262 5.99998 4.46478 6.18962 4.12721 6.52719C3.78965 6.86475 3.60001 7.32259 3.60001 7.79998V17.4C3.60001 18.1956 3.91608 18.9587 4.47869 19.5213C5.04129 20.0839 5.80436 20.4 6.60001 20.4H18C18.6365 20.4 19.247 20.1471 19.6971 19.697C20.1471 19.2469 20.4 18.6365 20.4 18V10.8C20.4 10.1635 20.1471 9.55301 19.6971 9.10292C19.247 8.65284 18.6365 8.39998 18 8.39998H5.40001C5.24088 8.39998 5.08826 8.33677 4.97574 8.22424C4.86322 8.11172 4.80001 7.95911 4.80001 7.79998C4.80001 7.64085 4.86322 7.48824 4.97574 7.37572C5.08826 7.26319 5.24088 7.19998 5.40001 7.19998H7.16281L8.00281 5.99998H5.40001ZM16.2 14.4H17.4C17.5591 14.4 17.7117 14.4632 17.8243 14.5757C17.9368 14.6882 18 14.8409 18 15C18 15.1591 17.9368 15.3117 17.8243 15.4242C17.7117 15.5368 17.5591 15.6 17.4 15.6H16.2C16.0409 15.6 15.8883 15.5368 15.7757 15.4242C15.6632 15.3117 15.6 15.1591 15.6 15C15.6 14.8409 15.6632 14.6882 15.7757 14.5757C15.8883 14.4632 16.0409 14.4 16.2 14.4Z" fill="#1AC232"/>
</svg>
